<svg width="205" height="108" viewBox="0 0 205 108" fill="none" xmlns="http://www.w3.org/2000/svg">
<g clip-path="url(#clip0_8_80)">
<mask id="mask0_8_80" style="mask-type:luminance" maskUnits="userSpaceOnUse" x="-69" y="-2627" width="1440" height="5730">
<path d="M-69 -2627H1371V3103H-69V-2627Z" fill="white"/>
</mask>
<g mask="url(#mask0_8_80)">
<path d="M70 38C59.5 38 51 29.5 51 19C51 8.5 59.5 0 70 0C80.5 0 89 8.5 89 19C89 29.5 80.5 38 70 38Z" fill="#EBF6FF"/>
</g>
</g>
<g clip-path="url(#clip1_8_80)">
<mask id="mask1_8_80" style="mask-type:luminance" maskUnits="userSpaceOnUse" x="-60" y="-2619" width="1440" height="5730">
<path d="M-60 -2619H1380V3111H-60V-2619Z" fill="white"/>
</mask>
<g mask="url(#mask1_8_80)">
<path d="M118.5 77.3001C113.2 77.3001 108.2 74.7001 105.1 70.4001C104.8 69.9001 104.9 69.3001 105.4 69.0001C105.8 68.7001 106.4 68.8001 106.7 69.3001C109.4 73.1001 113.8 75.4001 118.5 75.4001C126.5 75.4001 132.9 68.9001 132.9 61.0001C132.9 53.6001 127.4 47.4001 120 46.6001C119.5 46.6001 119.1 46.1001 119.1 45.6001C119.2 45.1001 119.7 44.7001 120.2 44.7001C128.5 45.6001 134.8 52.6001 134.8 61.0001C134.8 70.0001 127.5 77.3001 118.5 77.3001Z" fill="#0063D3"/>
<path d="M77.5 70.8H73C71.5 70.8 70.2 69.5 70.2 67.9V31.6C70.2 31.1 70.6 30.6 71.1 30.6H120.1C120.6 30.6 121 31.1 121 31.6V49.8C121 50.4 120.6 50.8 120.1 50.8C119.6 50.8 119.1 50.4 119.1 49.8V32.5H72.1V67.9C72.1 68.4 72.5 68.9 73 68.9H77.5C78 68.9 78.4 69.3 78.4 69.8C78.4 70.3 78 70.8 77.5 70.8Z" fill="#0063D3"/>
<path d="M111.5 70.8H81.9C81.4 70.8 81 70.3 81 69.8C81 69.3 81.4 68.9 81.9 68.9H111.5C112 68.9 112.5 69.3 112.5 69.8C112.5 70.3 112 70.8 111.5 70.8Z" fill="#0063D3"/>
<path d="M110.1 54.4001H108.1C107.4 54.4001 106.8 53.8001 106.8 53.1001V47.8001C106.8 47.1001 107.4 46.5001 108.1 46.5001H113.4C114.2 46.5001 114.8 47.1001 114.8 47.8001V50.7001C114.8 51.3001 114.3 51.7001 113.8 51.7001C113.3 51.7001 112.9 51.3001 112.9 50.7001V48.4001H108.7V52.6001H110.1C110.6 52.6001 111 53.0001 111 53.5001C111 54.0001 110.6 54.4001 110.1 54.4001Z" fill="#0063D3"/>
<path fill-rule="evenodd" clip-rule="evenodd" d="M113.4 44H108.1C107.4 44 106.8 43.4 106.8 42.7V37.4C106.8 36.7 107.4 36.1 108.1 36.1H113.4C114.2 36.1 114.8 36.7 114.8 37.4V42.7C114.8 43.4 114.2 44 113.4 44ZM108.7 42.1H112.9V38H108.7V42.1Z" fill="#0063D3"/>
<path d="M118.5 73.2001C112.7 73.2001 107.7 69.1001 106.5 63.4001C106.4 62.9001 106.8 62.4 107.3 62.3C107.8 62.2 108.3 62.5 108.4 63C109.3 67.8 113.6 71.3 118.5 71.3C124.2 71.3 128.8 66.7 128.8 61C128.8 55.3 124.2 50.7001 118.5 50.7001C113.6 50.7001 109.3 54.2 108.4 59C108.3 59.5 107.8 59.8001 107.3 59.7001C106.8 59.6001 106.4 59.1 106.5 58.6C107.6 52.9 112.7 48.8 118.5 48.8C125.2 48.8 130.7 54.2 130.7 61C130.7 67.7 125.2 73.2001 118.5 73.2001Z" fill="#0063D3"/>
<path d="M123.7 61.9001H118.5C118 61.9001 117.5 61.5001 117.5 61.0001V54.1001C117.5 53.6001 118 53.2001 118.5 53.2001C119 53.2001 119.4 53.6001 119.4 54.1001V60.0001H123.7C124.2 60.0001 124.7 60.5001 124.7 61.0001C124.7 61.5001 124.2 61.9001 123.7 61.9001Z" fill="#0063D3"/>
<path d="M120.1 32.5H71.1C70.6 32.5 70.2 32.1 70.2 31.6V24.4C70.2 22.9 71.5 21.6 73 21.6H82.2C82.7 21.6 83.1 22 83.1 22.5C83.1 23 82.7 23.5 82.2 23.5H73C72.5 23.5 72.1 23.9 72.1 24.4V30.6H119.1V24.4C119.1 23.9 118.7 23.5 118.2 23.5H86.6C86.1 23.5 85.6 23 85.6 22.5C85.6 22 86.1 21.6 86.6 21.6H118.2C119.8 21.6 121 22.9 121 24.4V31.6C121 32.1 120.6 32.5 120.1 32.5Z" fill="#0063D3"/>
<path d="M77.4 26.5C76.9 26.5 76.4 26.1 76.4 25.5V20.3C76.4 19.7 76.9 19.3 77.4 19.3C77.9 19.3 78.3 19.7 78.3 20.3V25.5C78.3 26.1 77.9 26.5 77.4 26.5Z" fill="#0063D3"/>
<path d="M113.8 26.5C113.3 26.5 112.9 26.1 112.9 25.5V20.3C112.9 19.7 113.3 19.3 113.8 19.3C114.3 19.3 114.8 19.7 114.8 20.3V25.5C114.8 26.1 114.3 26.5 113.8 26.5Z" fill="#0063D3"/>
<path d="M80.1 64.9C79.8 64.9 79.6 64.7 79.4 64.5L76.7 61.2C76.3 60.8 76.4 60.2 76.8 59.9C77.2 59.5 77.8 59.6 78.1 60L80 62.3L82.8 57.6C83 57.1 83.6 57 84.1 57.2C84.5 57.5 84.7 58.1 84.4 58.5L80.9 64.4C80.8 64.7 80.5 64.8 80.2 64.9C80.2 64.9 80.1667 64.9 80.1 64.9Z" fill="#0063D3"/>
<path fill-rule="evenodd" clip-rule="evenodd" d="M83.1 44H77.8C77 44 76.4 43.4 76.4 42.7V37.4C76.4 36.7 77 36.1 77.8 36.1H83.1C83.8 36.1 84.4 36.7 84.4 37.4V42.7C84.4 43.4 83.8 44 83.1 44ZM78.3 42.1H82.5V38H78.3V42.1Z" fill="#0063D3"/>
<path fill-rule="evenodd" clip-rule="evenodd" d="M93.2 44H87.9C87.2 44 86.6 43.4 86.6 42.7V37.4C86.6 36.7 87.2 36.1 87.9 36.1H93.2C93.9 36.1 94.5 36.7 94.5 37.4V42.7C94.5 43.4 93.9 44 93.2 44ZM88.5 42.1H92.6V38H88.5V42.1Z" fill="#0063D3"/>
<path fill-rule="evenodd" clip-rule="evenodd" d="M103.3 44H98C97.3 44 96.7 43.4 96.7 42.7V37.4C96.7 36.7 97.3 36.1 98 36.1H103.3C104 36.1 104.6 36.7 104.6 37.4V42.7C104.6 43.4 104 44 103.3 44ZM98.6 42.1H102.7V38H98.6V42.1Z" fill="#0063D3"/>
<path fill-rule="evenodd" clip-rule="evenodd" d="M83.1 54.4001H77.8C77 54.4001 76.4 53.8001 76.4 53.1001V47.8001C76.4 47.1001 77 46.5001 77.8 46.5001H83.1C83.8 46.5001 84.4 47.1001 84.4 47.8001V53.1001C84.4 53.8001 83.8 54.4001 83.1 54.4001ZM78.3 52.6001H82.5V48.4001H78.3V52.6001Z" fill="#0063D3"/>
<path fill-rule="evenodd" clip-rule="evenodd" d="M93.2 54.4001H87.9C87.2 54.4001 86.6 53.8001 86.6 53.1001V47.8001C86.6 47.1001 87.2 46.5001 87.9 46.5001H93.2C93.9 46.5001 94.5 47.1001 94.5 47.8001V53.1001C94.5 53.8001 93.9 54.4001 93.2 54.4001ZM88.5 52.6001H92.6V48.4001H88.5V52.6001Z" fill="#0063D3"/>
<path fill-rule="evenodd" clip-rule="evenodd" d="M103.3 54.4001H98C97.3 54.4001 96.7 53.8001 96.7 53.1001V47.8001C96.7 47.1001 97.3 46.5001 98 46.5001H103.3C104 46.5001 104.6 47.1001 104.6 47.8001V53.1001C104.6 53.8001 104 54.4001 103.3 54.4001ZM98.6 52.6001H102.7V48.4001H98.6V52.6001Z" fill="#0063D3"/>
<path fill-rule="evenodd" clip-rule="evenodd" d="M83.1 44H77.8C77 44 76.4 43.4 76.4 42.7V37.4C76.4 36.7 77 36.1 77.8 36.1H83.1C83.8 36.1 84.4 36.7 84.4 37.4V42.7C84.4 43.4 83.8 44 83.1 44ZM78.3 42.1H82.5V38H78.3V42.1Z" fill="#0063D3"/>
<path fill-rule="evenodd" clip-rule="evenodd" d="M93.2 44H87.9C87.2 44 86.6 43.4 86.6 42.7V37.4C86.6 36.7 87.2 36.1 87.9 36.1H93.2C93.9 36.1 94.5 36.7 94.5 37.4V42.7C94.5 43.4 93.9 44 93.2 44ZM88.5 42.1H92.6V38H88.5V42.1Z" fill="#0063D3"/>
<path fill-rule="evenodd" clip-rule="evenodd" d="M103.3 44H98C97.3 44 96.7 43.4 96.7 42.7V37.4C96.7 36.7 97.3 36.1 98 36.1H103.3C104 36.1 104.6 36.7 104.6 37.4V42.7C104.6 43.4 104 44 103.3 44ZM98.6 42.1H102.7V38H98.6V42.1Z" fill="#0063D3"/>
<path fill-rule="evenodd" clip-rule="evenodd" d="M83.1 54.4001H77.8C77 54.4001 76.4 53.8001 76.4 53.1001V47.8001C76.4 47.1001 77 46.5001 77.8 46.5001H83.1C83.8 46.5001 84.4 47.1001 84.4 47.8001V53.1001C84.4 53.8001 83.8 54.4001 83.1 54.4001ZM78.3 52.6001H82.5V48.4001H78.3V52.6001Z" fill="#0063D3"/>
<path fill-rule="evenodd" clip-rule="evenodd" d="M93.2 54.4001H87.9C87.2 54.4001 86.6 53.8001 86.6 53.1001V47.8001C86.6 47.1001 87.2 46.5001 87.9 46.5001H93.2C93.9 46.5001 94.5 47.1001 94.5 47.8001V53.1001C94.5 53.8001 93.9 54.4001 93.2 54.4001ZM88.5 52.6001H92.6V48.4001H88.5V52.6001Z" fill="#0063D3"/>
<path fill-rule="evenodd" clip-rule="evenodd" d="M103.3 54.4001H98C97.3 54.4001 96.7 53.8001 96.7 53.1001V47.8001C96.7 47.1001 97.3 46.5001 98 46.5001H103.3C104 46.5001 104.6 47.1001 104.6 47.8001V53.1001C104.6 53.8001 104 54.4001 103.3 54.4001ZM98.6 52.6001H102.7V48.4001H98.6V52.6001Z" fill="#0063D3"/>
<path fill-rule="evenodd" clip-rule="evenodd" d="M93.2 64.9H87.9C87.2 64.9 86.6 64.3 86.6 63.5V58.3C86.6 57.5 87.2 56.9 87.9 56.9H93.2C93.9 56.9 94.5 57.5 94.5 58.3V63.5C94.5 64.3 93.9 64.9 93.2 64.9ZM88.5 63H92.6V58.8H88.5V63Z" fill="#0063D3"/>
<path fill-rule="evenodd" clip-rule="evenodd" d="M103.3 64.9H98C97.3 64.9 96.7 64.3 96.7 63.5V58.3C96.7 57.5 97.3 56.9 98 56.9H103.3C104 56.9 104.6 57.5 104.6 58.3V63.5C104.6 64.3 104 64.9 103.3 64.9ZM98.6 63H102.7V58.8H98.6V63Z" fill="#0063D3"/>
</g>
</g>
<path d="M8.62305 102V101.141L9.77539 101.043C9.82747 101.043 9.8763 101.01 9.92188 100.945C9.96745 100.874 9.99023 100.809 9.99023 100.75C9.99023 100.724 9.98698 100.708 9.98047 100.701L8.60352 97.0391H3.98438L2.65625 100.643C2.64974 100.656 2.64648 100.675 2.64648 100.701C2.64648 100.779 2.67904 100.857 2.74414 100.936C2.81576 101.007 2.88086 101.043 2.93945 101.043L4.12109 101.141V102H0.0976562V101.141L1.25977 100.896L5.91797 88.2598H7.42188L12.0605 100.604C12.1061 100.74 12.1484 100.831 12.1875 100.877C12.2331 100.923 12.3307 100.958 12.4805 100.984L13.3789 101.141V102H8.62305ZM6.2793 90.8379L4.33594 96.082H8.24219L6.2793 90.8379ZM23.9746 97.0391C23.9746 97.8268 23.8574 98.543 23.623 99.1875C23.3952 99.8255 23.0632 100.372 22.627 100.828C22.1973 101.277 21.6667 101.626 21.0352 101.873C20.4102 102.12 19.7038 102.244 18.916 102.244C18.7337 102.244 18.5384 102.234 18.3301 102.215C18.1217 102.202 17.9297 102.182 17.7539 102.156C17.5456 102.13 17.3405 102.098 17.1387 102.059V105.037C17.1387 105.161 17.181 105.258 17.2656 105.33C17.3503 105.402 17.4544 105.444 17.5781 105.457L18.7598 105.584V106.355H13.8965V105.584L14.8535 105.457C14.9772 105.444 15.0781 105.402 15.1562 105.33C15.2344 105.258 15.2734 105.161 15.2734 105.037V93.7773H13.8965V93.123L16.3574 92.3613H17.1387V93.3574C17.4251 93.1296 17.7311 92.9245 18.0566 92.7422C18.3366 92.5859 18.6589 92.4427 19.0234 92.3125C19.388 92.1823 19.7656 92.1172 20.1562 92.1172C20.6706 92.1172 21.1589 92.2344 21.6211 92.4688C22.0833 92.7031 22.487 93.0352 22.832 93.4648C23.1836 93.8945 23.4603 94.4121 23.6621 95.0176C23.8704 95.623 23.9746 96.2969 23.9746 97.0391ZM21.9727 97.3223C21.9727 96.8079 21.9108 96.3229 21.7871 95.8672C21.6699 95.4049 21.4941 95.0013 21.2598 94.6562C21.0254 94.3047 20.7324 94.028 20.3809 93.8262C20.0358 93.6243 19.6354 93.5234 19.1797 93.5234C18.9258 93.5234 18.6751 93.556 18.4277 93.6211C18.1868 93.6862 17.972 93.7546 17.7832 93.8262C17.5618 93.9108 17.347 94.0085 17.1387 94.1191V101.004C17.2949 101.062 17.4609 101.115 17.6367 101.16C17.7865 101.199 17.959 101.235 18.1543 101.268C18.3496 101.3 18.5514 101.316 18.7598 101.316C19.3066 101.316 19.7819 101.206 20.1855 100.984C20.5892 100.763 20.9212 100.47 21.1816 100.105C21.4486 99.7344 21.6471 99.3079 21.7773 98.8262C21.9076 98.3444 21.9727 97.8431 21.9727 97.3223ZM35.166 97.0391C35.166 97.8268 35.0488 98.543 34.8145 99.1875C34.5866 99.8255 34.2546 100.372 33.8184 100.828C33.3887 101.277 32.8581 101.626 32.2266 101.873C31.6016 102.12 30.8952 102.244 30.1074 102.244C29.9251 102.244 29.7298 102.234 29.5215 102.215C29.3132 102.202 29.1211 102.182 28.9453 102.156C28.737 102.13 28.5319 102.098 28.3301 102.059V105.037C28.3301 105.161 28.3724 105.258 28.457 105.33C28.5417 105.402 28.6458 105.444 28.7695 105.457L29.9512 105.584V106.355H25.0879V105.584L26.0449 105.457C26.1686 105.444 26.2695 105.402 26.3477 105.33C26.4258 105.258 26.4648 105.161 26.4648 105.037V93.7773H25.0879V93.123L27.5488 92.3613H28.3301V93.3574C28.6165 93.1296 28.9225 92.9245 29.248 92.7422C29.528 92.5859 29.8503 92.4427 30.2148 92.3125C30.5794 92.1823 30.957 92.1172 31.3477 92.1172C31.862 92.1172 32.3503 92.2344 32.8125 92.4688C33.2747 92.7031 33.6784 93.0352 34.0234 93.4648C34.375 93.8945 34.6517 94.4121 34.8535 95.0176C35.0618 95.623 35.166 96.2969 35.166 97.0391ZM33.1641 97.3223C33.1641 96.8079 33.1022 96.3229 32.9785 95.8672C32.8613 95.4049 32.6855 95.0013 32.4512 94.6562C32.2168 94.3047 31.9238 94.028 31.5723 93.8262C31.2272 93.6243 30.8268 93.5234 30.3711 93.5234C30.1172 93.5234 29.8665 93.556 29.6191 93.6211C29.3783 93.6862 29.1634 93.7546 28.9746 93.8262C28.7533 93.9108 28.5384 94.0085 28.3301 94.1191V101.004C28.4863 101.062 28.6523 101.115 28.8281 101.16C28.9779 101.199 29.1504 101.235 29.3457 101.268C29.541 101.3 29.7428 101.316 29.9512 101.316C30.498 101.316 30.9733 101.206 31.377 100.984C31.7806 100.763 32.1126 100.47 32.373 100.105C32.64 99.7344 32.8385 99.3079 32.9688 98.8262C33.099 98.3444 33.1641 97.8431 33.1641 97.3223ZM46.0547 97.1953C46.0547 97.9049 45.9408 98.569 45.7129 99.1875C45.4915 99.7995 45.1725 100.333 44.7559 100.789C44.3457 101.238 43.8444 101.593 43.252 101.854C42.666 102.114 42.0085 102.244 41.2793 102.244C40.5501 102.244 39.8926 102.117 39.3066 101.863C38.7207 101.603 38.2227 101.248 37.8125 100.799C37.4023 100.35 37.0866 99.819 36.8652 99.207C36.6504 98.5885 36.543 97.918 36.543 97.1953C36.543 96.4857 36.6536 95.8216 36.875 95.2031C37.0964 94.5846 37.4154 94.0475 37.832 93.5918C38.2487 93.1296 38.75 92.7682 39.3359 92.5078C39.9284 92.2474 40.5957 92.1172 41.3379 92.1172C42.0801 92.1172 42.7441 92.2507 43.3301 92.5176C43.916 92.7845 44.4108 93.1491 44.8145 93.6113C45.2181 94.0671 45.5241 94.6042 45.7324 95.2227C45.9473 95.8346 46.0547 96.4922 46.0547 97.1953ZM43.9746 97.1758C43.9746 96.6289 43.9193 96.1048 43.8086 95.6035C43.7044 95.1022 43.5417 94.6595 43.3203 94.2754C43.099 93.8913 42.8223 93.5853 42.4902 93.3574C42.1582 93.1296 41.7676 93.0156 41.3184 93.0156C40.8561 93.0156 40.4557 93.1296 40.1172 93.3574C39.7786 93.5853 39.4987 93.8913 39.2773 94.2754C39.0625 94.6595 38.903 95.1022 38.7988 95.6035C38.6947 96.1048 38.6426 96.6289 38.6426 97.1758C38.6426 97.7161 38.6947 98.237 38.7988 98.7383C38.9095 99.2396 39.0755 99.6823 39.2969 100.066C39.5182 100.451 39.7949 100.76 40.127 100.994C40.459 101.222 40.8496 101.336 41.2988 101.336C41.7546 101.336 42.1517 101.222 42.4902 100.994C42.8288 100.766 43.1055 100.46 43.3203 100.076C43.5417 99.6921 43.7044 99.2493 43.8086 98.748C43.9193 98.2467 43.9746 97.7227 43.9746 97.1758ZM51.0938 89.0605C51.0938 89.2298 51.0612 89.3926 50.9961 89.5488C50.9375 89.6986 50.8529 89.8288 50.7422 89.9395C50.6315 90.0501 50.5013 90.138 50.3516 90.2031C50.2083 90.2682 50.0521 90.3008 49.8828 90.3008C49.7135 90.3008 49.5508 90.2682 49.3945 90.2031C49.2448 90.138 49.1146 90.0501 49.0039 89.9395C48.8932 89.8288 48.8053 89.6986 48.7402 89.5488C48.6751 89.3926 48.6426 89.2298 48.6426 89.0605C48.6426 88.8913 48.6751 88.7318 48.7402 88.582C48.8053 88.4323 48.8932 88.3021 49.0039 88.1914C49.1146 88.0807 49.2448 87.9961 49.3945 87.9375C49.5508 87.8724 49.7135 87.8398 49.8828 87.8398C50.0521 87.8398 50.2083 87.8724 50.3516 87.9375C50.5013 87.9961 50.6315 88.0807 50.7422 88.1914C50.8529 88.3021 50.9375 88.4323 50.9961 88.582C51.0612 88.7318 51.0938 88.8913 51.0938 89.0605ZM47.4219 102V101.219L48.3984 101.16C48.5221 101.147 48.623 101.102 48.7012 101.023C48.7793 100.945 48.8184 100.844 48.8184 100.721V93.582H47.4414V92.8789L49.8828 92.1172H50.6738V100.721C50.6738 100.844 50.7129 100.945 50.791 101.023C50.8757 101.102 50.9766 101.147 51.0938 101.16L52.1191 101.219V102H47.4219ZM59.3359 102V101.219L60.1758 101.16C60.293 101.147 60.3906 101.102 60.4688 101.023C60.5534 100.945 60.5957 100.844 60.5957 100.721V95.5156C60.5957 94.8841 60.4492 94.4056 60.1562 94.0801C59.8633 93.748 59.3685 93.582 58.6719 93.582C58.2878 93.582 57.9102 93.6374 57.5391 93.748C57.168 93.8522 56.8132 93.9889 56.4746 94.1582V100.721C56.4746 100.844 56.5137 100.945 56.5918 101.023C56.6699 101.102 56.7708 101.147 56.8945 101.16L57.7344 101.219V102H53.2129V101.219L54.1895 101.16C54.3132 101.147 54.4141 101.102 54.4922 101.023C54.5703 100.945 54.6094 100.844 54.6094 100.721V93.7773H53.2129V93.123L55.6543 92.3613H56.4746V93.3574C56.7546 93.2012 57.0378 93.0482 57.3242 92.8984C57.6172 92.7487 57.9069 92.6152 58.1934 92.498C58.4798 92.3809 58.7565 92.2897 59.0234 92.2246C59.2904 92.153 59.541 92.1172 59.7754 92.1172C60.6478 92.1172 61.3118 92.3874 61.7676 92.9277C62.2233 93.4681 62.4512 94.2266 62.4512 95.2031V100.721C62.4512 100.844 62.4902 100.945 62.5684 101.023C62.653 101.102 62.7539 101.147 62.8711 101.16L63.75 101.219V102H59.3359ZM70.8203 101.58C70.5729 101.704 70.3027 101.814 70.0098 101.912C69.7624 101.997 69.4759 102.072 69.1504 102.137C68.8249 102.208 68.4831 102.244 68.125 102.244C67.3698 102.244 66.8229 102.068 66.4844 101.717C66.1458 101.365 65.9766 100.792 65.9766 99.998V93.3574H64.6973V92.7031L66.0645 92.0586L66.9629 89.9395H67.8418V92.3613H70.6641V93.3574H67.8418V98.9434C67.8418 99.3405 67.8743 99.679 67.9395 99.959C68.0111 100.232 68.112 100.457 68.2422 100.633C68.3789 100.802 68.5449 100.926 68.7402 101.004C68.9421 101.082 69.1764 101.121 69.4434 101.121C69.6387 101.121 69.8177 101.105 69.9805 101.072C70.1497 101.04 70.2962 101.001 70.4199 100.955C70.5632 100.903 70.6966 100.844 70.8203 100.779V101.58ZM83.0371 102V101.219L83.877 101.16C84.0007 101.147 84.1016 101.102 84.1797 101.023C84.2578 100.945 84.2969 100.844 84.2969 100.721V95.623C84.2969 95.3105 84.2676 95.0306 84.209 94.7832C84.1504 94.5293 84.0495 94.3145 83.9062 94.1387C83.7695 93.9629 83.5872 93.8262 83.3594 93.7285C83.1315 93.6309 82.8516 93.582 82.5195 93.582C82.3503 93.582 82.1712 93.5983 81.9824 93.6309C81.8001 93.6569 81.6146 93.696 81.4258 93.748C81.2435 93.7936 81.0612 93.8522 80.8789 93.9238C80.7031 93.9889 80.5371 94.0605 80.3809 94.1387V100.721C80.3809 100.844 80.4199 100.945 80.498 101.023C80.5762 101.102 80.6771 101.147 80.8008 101.16L81.6406 101.219V102H77.2559V101.219L78.0957 101.16C78.2194 101.147 78.3203 101.102 78.3984 101.023C78.4766 100.945 78.5156 100.844 78.5156 100.721V95.4961C78.5156 95.2161 78.4831 94.959 78.418 94.7246C78.3594 94.4837 78.2585 94.2819 78.1152 94.1191C77.9785 93.9499 77.7962 93.8197 77.5684 93.7285C77.347 93.6309 77.0768 93.582 76.7578 93.582C76.569 93.582 76.3704 93.6016 76.1621 93.6406C75.9603 93.6732 75.765 93.7188 75.5762 93.7773C75.3874 93.8294 75.2083 93.8913 75.0391 93.9629C74.8763 94.028 74.7363 94.0931 74.6191 94.1582V100.721C74.6191 100.844 74.6582 100.945 74.7363 101.023C74.8145 101.102 74.9154 101.147 75.0391 101.16L75.8789 101.219V102H71.3574V101.219L72.334 101.16C72.4577 101.147 72.5586 101.102 72.6367 101.023C72.7148 100.945 72.7539 100.844 72.7539 100.721V93.7773H71.377V93.123L73.7988 92.3613H74.6191V93.3574C74.8405 93.2207 75.0846 93.0807 75.3516 92.9375C75.625 92.7943 75.9049 92.6608 76.1914 92.5371C76.4779 92.4134 76.7643 92.3125 77.0508 92.2344C77.3438 92.1562 77.6204 92.1172 77.8809 92.1172C78.1673 92.1172 78.4277 92.1595 78.6621 92.2441C78.8965 92.3223 79.1016 92.4297 79.2773 92.5664C79.4596 92.6966 79.6159 92.8464 79.7461 93.0156C79.8828 93.1784 79.9935 93.3411 80.0781 93.5039C80.2799 93.3802 80.5241 93.237 80.8105 93.0742C81.097 92.9115 81.3997 92.7617 81.7188 92.625C82.0378 92.4818 82.3568 92.3613 82.6758 92.2637C82.9948 92.166 83.2878 92.1172 83.5547 92.1172C84.082 92.1172 84.5117 92.2148 84.8438 92.4102C85.1758 92.599 85.4362 92.8431 85.625 93.1426C85.8203 93.4355 85.9538 93.7643 86.0254 94.1289C86.097 94.4935 86.1328 94.8451 86.1328 95.1836V100.721C86.1328 100.844 86.1719 100.945 86.25 101.023C86.3346 101.102 86.4355 101.147 86.5527 101.16L87.5195 101.219V102H83.0371ZM97.0898 101.004C96.8099 101.18 96.5169 101.342 96.2109 101.492C95.9115 101.642 95.599 101.772 95.2734 101.883C94.9544 101.993 94.6289 102.081 94.2969 102.146C93.9648 102.212 93.6296 102.244 93.291 102.244C92.6855 102.244 92.1029 102.143 91.543 101.941C90.9831 101.733 90.4883 101.424 90.0586 101.014C89.6354 100.604 89.2936 100.089 89.0332 99.4707C88.7793 98.8457 88.6523 98.1165 88.6523 97.2832C88.6523 96.502 88.7695 95.7956 89.0039 95.1641C89.2383 94.526 89.5638 93.9824 89.9805 93.5332C90.3971 93.0775 90.8919 92.7292 91.4648 92.4883C92.0378 92.2409 92.666 92.1172 93.3496 92.1172C93.9681 92.1172 94.5117 92.2214 94.9805 92.4297C95.4492 92.6315 95.8398 92.9147 96.1523 93.2793C96.4648 93.6374 96.6992 94.0703 96.8555 94.5781C97.0117 95.0794 97.0898 95.6263 97.0898 96.2188V96.4824C97.0898 96.5866 97.0833 96.6842 97.0703 96.7754H90.5859C90.5859 97.2832 90.638 97.791 90.7422 98.2988C90.8529 98.8066 91.0352 99.2624 91.2891 99.666C91.543 100.07 91.8848 100.398 92.3145 100.652C92.7441 100.9 93.2812 101.023 93.9258 101.023C94.2122 101.023 94.4954 100.988 94.7754 100.916C95.0553 100.838 95.3288 100.74 95.5957 100.623C95.8691 100.506 96.1296 100.376 96.377 100.232C96.6243 100.083 96.862 99.9329 97.0898 99.7832V101.004ZM95.0879 95.4375C95.0879 95.1055 95.0488 94.7995 94.9707 94.5195C94.8926 94.2331 94.7721 93.9857 94.6094 93.7773C94.4531 93.569 94.2513 93.4062 94.0039 93.2891C93.763 93.1654 93.4766 93.1035 93.1445 93.1035C92.8125 93.1035 92.5033 93.1686 92.2168 93.2988C91.9303 93.4225 91.6764 93.6048 91.4551 93.8457C91.2402 94.0866 91.0645 94.3796 90.9277 94.7246C90.7975 95.0632 90.7194 95.4473 90.6934 95.877H95.0879V95.4375ZM104.297 102V101.219L105.137 101.16C105.254 101.147 105.352 101.102 105.43 101.023C105.514 100.945 105.557 100.844 105.557 100.721V95.5156C105.557 94.8841 105.41 94.4056 105.117 94.0801C104.824 93.748 104.329 93.582 103.633 93.582C103.249 93.582 102.871 93.6374 102.5 93.748C102.129 93.8522 101.774 93.9889 101.436 94.1582V100.721C101.436 100.844 101.475 100.945 101.553 101.023C101.631 101.102 101.732 101.147 101.855 101.16L102.695 101.219V102H98.1738V101.219L99.1504 101.16C99.2741 101.147 99.375 101.102 99.4531 101.023C99.5312 100.945 99.5703 100.844 99.5703 100.721V93.7773H98.1738V93.123L100.615 92.3613H101.436V93.3574C101.715 93.2012 101.999 93.0482 102.285 92.8984C102.578 92.7487 102.868 92.6152 103.154 92.498C103.441 92.3809 103.717 92.2897 103.984 92.2246C104.251 92.153 104.502 92.1172 104.736 92.1172C105.609 92.1172 106.273 92.3874 106.729 92.9277C107.184 93.4681 107.412 94.2266 107.412 95.2031V100.721C107.412 100.844 107.451 100.945 107.529 101.023C107.614 101.102 107.715 101.147 107.832 101.16L108.711 101.219V102H104.297ZM115.781 101.58C115.534 101.704 115.264 101.814 114.971 101.912C114.723 101.997 114.437 102.072 114.111 102.137C113.786 102.208 113.444 102.244 113.086 102.244C112.331 102.244 111.784 102.068 111.445 101.717C111.107 101.365 110.938 100.792 110.938 99.998V93.3574H109.658V92.7031L111.025 92.0586L111.924 89.9395H112.803V92.3613H115.625V93.3574H112.803V98.9434C112.803 99.3405 112.835 99.679 112.9 99.959C112.972 100.232 113.073 100.457 113.203 100.633C113.34 100.802 113.506 100.926 113.701 101.004C113.903 101.082 114.137 101.121 114.404 101.121C114.6 101.121 114.779 101.105 114.941 101.072C115.111 101.04 115.257 101.001 115.381 100.955C115.524 100.903 115.658 100.844 115.781 100.779V101.58ZM134.561 98.2402C134.561 98.748 134.46 99.2461 134.258 99.7344C134.062 100.223 133.75 100.659 133.32 101.043C132.891 101.427 132.34 101.736 131.67 101.971C130.999 102.205 130.195 102.322 129.258 102.322C128.711 102.322 128.219 102.283 127.783 102.205C127.354 102.127 126.982 102.042 126.67 101.951C126.312 101.84 125.99 101.717 125.703 101.58V98.0352H126.963L127.227 100.301C127.24 100.379 127.279 100.464 127.344 100.555C127.415 100.646 127.487 100.708 127.559 100.74L127.725 100.828C127.822 100.874 127.956 100.926 128.125 100.984C128.294 101.036 128.499 101.085 128.74 101.131C128.988 101.176 129.268 101.199 129.58 101.199C130.003 101.199 130.394 101.147 130.752 101.043C131.117 100.932 131.429 100.776 131.689 100.574C131.95 100.372 132.152 100.125 132.295 99.832C132.445 99.5391 132.52 99.207 132.52 98.8359C132.52 98.4323 132.402 98.0807 132.168 97.7812C131.94 97.4753 131.65 97.2051 131.299 96.9707C130.954 96.7298 130.576 96.515 130.166 96.3262C129.756 96.1374 129.368 95.9551 129.004 95.7793C128.594 95.584 128.2 95.3822 127.822 95.1738C127.451 94.9655 127.122 94.7246 126.836 94.4512C126.556 94.1777 126.331 93.8587 126.162 93.4941C125.999 93.123 125.918 92.6836 125.918 92.1758C125.918 91.5833 126.035 91.0462 126.27 90.5645C126.504 90.0827 126.826 89.6725 127.236 89.334C127.653 88.9889 128.141 88.7253 128.701 88.543C129.268 88.3542 129.88 88.2598 130.537 88.2598C130.895 88.2598 131.23 88.2793 131.543 88.3184C131.855 88.3574 132.148 88.4095 132.422 88.4746C132.702 88.5332 132.962 88.6016 133.203 88.6797C133.444 88.7513 133.672 88.8197 133.887 88.8848L134.062 88.9434V92.0586H132.92L132.617 90.1445C132.604 90.0534 132.562 89.9883 132.49 89.9492C132.425 89.9036 132.363 89.8516 132.305 89.793C132.279 89.7734 132.227 89.7409 132.148 89.6953C132.07 89.6432 131.96 89.5911 131.816 89.5391C131.68 89.487 131.507 89.4414 131.299 89.4023C131.09 89.3633 130.846 89.3438 130.566 89.3438C130.163 89.3438 129.801 89.4023 129.482 89.5195C129.163 89.6367 128.893 89.8027 128.672 90.0176C128.451 90.2259 128.278 90.4733 128.154 90.7598C128.037 91.0462 127.979 91.3587 127.979 91.6973C127.979 92.0033 128.037 92.2832 128.154 92.5371C128.278 92.7845 128.457 93.0156 128.691 93.2305C128.932 93.4388 129.225 93.6341 129.57 93.8164C129.915 93.9987 130.312 94.1745 130.762 94.3438C131.367 94.5716 131.904 94.8092 132.373 95.0566C132.848 95.304 133.245 95.5807 133.564 95.8867C133.89 96.1927 134.137 96.5378 134.307 96.9219C134.476 97.2995 134.561 97.7389 134.561 98.2402ZM143.994 101.258C143.766 101.375 143.525 101.495 143.271 101.619C143.024 101.736 142.757 101.84 142.471 101.932C142.191 102.023 141.895 102.098 141.582 102.156C141.276 102.215 140.954 102.244 140.615 102.244C139.912 102.244 139.277 102.12 138.711 101.873C138.151 101.619 137.673 101.271 137.275 100.828C136.878 100.379 136.572 99.8483 136.357 99.2363C136.143 98.6243 136.035 97.9603 136.035 97.2441C136.035 96.4043 136.165 95.6654 136.426 95.0273C136.686 94.3893 137.038 93.8555 137.48 93.4258C137.923 92.9896 138.434 92.6641 139.014 92.4492C139.6 92.2279 140.212 92.1172 140.85 92.1172C141.286 92.1172 141.693 92.1628 142.07 92.2539C142.454 92.3385 142.783 92.4655 143.057 92.6348C143.337 92.804 143.555 93.0124 143.711 93.2598C143.874 93.5072 143.955 93.7936 143.955 94.1191C143.955 94.3145 143.919 94.487 143.848 94.6367C143.783 94.7799 143.695 94.9036 143.584 95.0078C143.473 95.1055 143.346 95.1803 143.203 95.2324C143.066 95.278 142.923 95.3008 142.773 95.3008C142.552 95.3008 142.36 95.265 142.197 95.1934C142.035 95.1152 141.891 95.0371 141.768 94.959V93.2207C141.631 93.1426 141.488 93.0807 141.338 93.0352C141.195 92.9831 141.058 92.957 140.928 92.957C140.485 92.957 140.085 93.0579 139.727 93.2598C139.375 93.4616 139.076 93.7415 138.828 94.0996C138.587 94.4577 138.402 94.8841 138.271 95.3789C138.141 95.8672 138.076 96.401 138.076 96.9805C138.076 97.5339 138.145 98.0547 138.281 98.543C138.424 99.0312 138.633 99.4577 138.906 99.8223C139.186 100.18 139.531 100.464 139.941 100.672C140.358 100.88 140.84 100.984 141.387 100.984C141.855 100.984 142.298 100.913 142.715 100.77C143.138 100.62 143.564 100.402 143.994 100.115V101.258ZM151.23 102V101.219L152.051 101.16C152.168 101.147 152.269 101.102 152.354 101.023C152.445 100.945 152.49 100.844 152.49 100.721V95.5645C152.49 95.278 152.458 95.0143 152.393 94.7734C152.334 94.5326 152.227 94.3242 152.07 94.1484C151.921 93.9727 151.719 93.8359 151.465 93.7383C151.211 93.6341 150.892 93.582 150.508 93.582C150.332 93.582 150.146 93.5983 149.951 93.6309C149.756 93.6569 149.561 93.696 149.365 93.748C149.176 93.8001 148.991 93.862 148.809 93.9336C148.633 94.0052 148.473 94.0801 148.33 94.1582V100.721C148.33 100.844 148.366 100.945 148.438 101.023C148.509 101.102 148.607 101.147 148.73 101.16L149.59 101.219V102H145.088V101.219L146.045 101.16C146.169 101.147 146.27 101.102 146.348 101.023C146.426 100.945 146.465 100.844 146.465 100.721V88.6992H144.971V88.0352L147.529 87.2637H148.33V93.3574C148.512 93.2467 148.737 93.1198 149.004 92.9766C149.271 92.8333 149.554 92.6999 149.854 92.5762C150.16 92.446 150.465 92.3385 150.771 92.2539C151.084 92.1628 151.37 92.1172 151.631 92.1172C152.015 92.1172 152.37 92.179 152.695 92.3027C153.027 92.4264 153.314 92.612 153.555 92.8594C153.802 93.1068 153.994 93.4225 154.131 93.8066C154.274 94.1842 154.346 94.6302 154.346 95.1445V100.721C154.346 100.844 154.388 100.945 154.473 101.023C154.564 101.102 154.668 101.147 154.785 101.16L155.684 101.219V102H151.23ZM165.273 101.004C164.993 101.18 164.701 101.342 164.395 101.492C164.095 101.642 163.783 101.772 163.457 101.883C163.138 101.993 162.812 102.081 162.48 102.146C162.148 102.212 161.813 102.244 161.475 102.244C160.869 102.244 160.286 102.143 159.727 101.941C159.167 101.733 158.672 101.424 158.242 101.014C157.819 100.604 157.477 100.089 157.217 99.4707C156.963 98.8457 156.836 98.1165 156.836 97.2832C156.836 96.502 156.953 95.7956 157.188 95.1641C157.422 94.526 157.747 93.9824 158.164 93.5332C158.581 93.0775 159.076 92.7292 159.648 92.4883C160.221 92.2409 160.85 92.1172 161.533 92.1172C162.152 92.1172 162.695 92.2214 163.164 92.4297C163.633 92.6315 164.023 92.9147 164.336 93.2793C164.648 93.6374 164.883 94.0703 165.039 94.5781C165.195 95.0794 165.273 95.6263 165.273 96.2188V96.4824C165.273 96.5866 165.267 96.6842 165.254 96.7754H158.77C158.77 97.2832 158.822 97.791 158.926 98.2988C159.036 98.8066 159.219 99.2624 159.473 99.666C159.727 100.07 160.068 100.398 160.498 100.652C160.928 100.9 161.465 101.023 162.109 101.023C162.396 101.023 162.679 100.988 162.959 100.916C163.239 100.838 163.512 100.74 163.779 100.623C164.053 100.506 164.313 100.376 164.561 100.232C164.808 100.083 165.046 99.9329 165.273 99.7832V101.004ZM163.271 95.4375C163.271 95.1055 163.232 94.7995 163.154 94.5195C163.076 94.2331 162.956 93.9857 162.793 93.7773C162.637 93.569 162.435 93.4062 162.188 93.2891C161.947 93.1654 161.66 93.1035 161.328 93.1035C160.996 93.1035 160.687 93.1686 160.4 93.2988C160.114 93.4225 159.86 93.6048 159.639 93.8457C159.424 94.0866 159.248 94.3796 159.111 94.7246C158.981 95.0632 158.903 95.4473 158.877 95.877H163.271V95.4375ZM173.574 102V100.936C173.346 101.111 173.109 101.281 172.861 101.443C172.62 101.6 172.37 101.736 172.109 101.854C171.855 101.971 171.592 102.065 171.318 102.137C171.051 102.208 170.771 102.244 170.479 102.244C169.808 102.244 169.229 102.101 168.74 101.814C168.258 101.521 167.861 101.147 167.549 100.691C167.236 100.229 167.005 99.7148 166.855 99.1484C166.712 98.5755 166.641 98.0059 166.641 97.4395C166.641 96.7624 166.745 96.1048 166.953 95.4668C167.161 94.8223 167.477 94.2526 167.9 93.7578C168.324 93.263 168.854 92.8659 169.492 92.5664C170.13 92.2669 170.879 92.1172 171.738 92.1172C171.895 92.1172 172.064 92.127 172.246 92.1465C172.428 92.166 172.604 92.1888 172.773 92.2148C172.949 92.2344 173.105 92.2604 173.242 92.293C173.385 92.319 173.496 92.3418 173.574 92.3613V88.6992H172.061V88.0352L174.639 87.2637H175.439V100.721C175.439 100.844 175.479 100.945 175.557 101.023C175.635 101.102 175.736 101.147 175.859 101.16L176.719 101.219V102H173.574ZM173.574 93.377C173.49 93.3509 173.379 93.3216 173.242 93.2891C173.112 93.25 172.969 93.2174 172.812 93.1914C172.663 93.1589 172.503 93.1328 172.334 93.1133C172.171 93.0938 172.018 93.084 171.875 93.084C171.38 93.084 170.931 93.1816 170.527 93.377C170.124 93.5658 169.779 93.8359 169.492 94.1875C169.212 94.5326 168.994 94.9525 168.838 95.4473C168.688 95.9421 168.613 96.4922 168.613 97.0977C168.613 97.6445 168.678 98.1491 168.809 98.6113C168.939 99.0671 169.128 99.4642 169.375 99.8027C169.622 100.141 169.925 100.405 170.283 100.594C170.641 100.783 171.051 100.877 171.514 100.877C171.715 100.877 171.911 100.857 172.1 100.818C172.288 100.773 172.471 100.717 172.646 100.652C172.822 100.581 172.988 100.506 173.145 100.428C173.301 100.343 173.444 100.262 173.574 100.184V93.377ZM185.029 102V100.857C184.86 100.988 184.652 101.134 184.404 101.297C184.163 101.46 183.9 101.613 183.613 101.756C183.333 101.893 183.037 102.007 182.725 102.098C182.419 102.195 182.119 102.244 181.826 102.244C181.396 102.244 181.009 102.179 180.664 102.049C180.326 101.925 180.036 101.733 179.795 101.473C179.561 101.206 179.378 100.87 179.248 100.467C179.124 100.057 179.062 99.5684 179.062 99.002V93.582H177.666V92.8984L180.127 92.1172H180.928V98.6211C180.928 98.9727 180.96 99.2884 181.025 99.5684C181.097 99.8483 181.208 100.086 181.357 100.281C181.514 100.477 181.715 100.626 181.963 100.73C182.21 100.828 182.51 100.877 182.861 100.877C183.063 100.877 183.268 100.857 183.477 100.818C183.685 100.779 183.883 100.73 184.072 100.672C184.261 100.607 184.437 100.542 184.6 100.477C184.769 100.405 184.912 100.34 185.029 100.281V93.582H183.623V92.8984L186.064 92.1172H186.885V100.721C186.885 100.844 186.927 100.945 187.012 101.023C187.103 101.102 187.207 101.147 187.324 101.16L188.203 101.219V102H185.029ZM189.17 102V101.219L190.234 101.16C190.326 101.16 190.42 101.115 190.518 101.023C190.622 100.926 190.674 100.831 190.674 100.74V88.6992H189.15V88.0352L191.709 87.2637H192.529V100.74C192.529 100.831 192.575 100.926 192.666 101.023C192.764 101.115 192.858 101.16 192.949 101.16L194.033 101.219V102H189.17ZM203.691 101.004C203.411 101.18 203.118 101.342 202.812 101.492C202.513 101.642 202.201 101.772 201.875 101.883C201.556 101.993 201.23 102.081 200.898 102.146C200.566 102.212 200.231 102.244 199.893 102.244C199.287 102.244 198.704 102.143 198.145 101.941C197.585 101.733 197.09 101.424 196.66 101.014C196.237 100.604 195.895 100.089 195.635 99.4707C195.381 98.8457 195.254 98.1165 195.254 97.2832C195.254 96.502 195.371 95.7956 195.605 95.1641C195.84 94.526 196.165 93.9824 196.582 93.5332C196.999 93.0775 197.493 92.7292 198.066 92.4883C198.639 92.2409 199.268 92.1172 199.951 92.1172C200.57 92.1172 201.113 92.2214 201.582 92.4297C202.051 92.6315 202.441 92.9147 202.754 93.2793C203.066 93.6374 203.301 94.0703 203.457 94.5781C203.613 95.0794 203.691 95.6263 203.691 96.2188V96.4824C203.691 96.5866 203.685 96.6842 203.672 96.7754H197.188C197.188 97.2832 197.24 97.791 197.344 98.2988C197.454 98.8066 197.637 99.2624 197.891 99.666C198.145 100.07 198.486 100.398 198.916 100.652C199.346 100.9 199.883 101.023 200.527 101.023C200.814 101.023 201.097 100.988 201.377 100.916C201.657 100.838 201.93 100.74 202.197 100.623C202.471 100.506 202.731 100.376 202.979 100.232C203.226 100.083 203.464 99.9329 203.691 99.7832V101.004ZM201.689 95.4375C201.689 95.1055 201.65 94.7995 201.572 94.5195C201.494 94.2331 201.374 93.9857 201.211 93.7773C201.055 93.569 200.853 93.4062 200.605 93.2891C200.365 93.1654 200.078 93.1035 199.746 93.1035C199.414 93.1035 199.105 93.1686 198.818 93.2988C198.532 93.4225 198.278 93.6048 198.057 93.8457C197.842 94.0866 197.666 94.3796 197.529 94.7246C197.399 95.0632 197.321 95.4473 197.295 95.877H201.689V95.4375Z" fill="black"/>
<defs>
<clipPath id="clip0_8_80">
<rect width="38" height="38" fill="white" transform="translate(51)"/>
</clipPath>
<clipPath id="clip1_8_80">
<rect width="65" height="59" fill="white" transform="translate(70 19)"/>
</clipPath>
</defs>
</svg>
