<svg version="1.2" xmlns="http://www.w3.org/2000/svg" viewBox="0 0 159 123" width="159" height="123"><defs><clipPath clipPathUnits="userSpaceOnUse" id="cp1"><path d="m-827-2627h1440v5730h-1440z"/></clipPath></defs><style>tspan{white-space:pre}.a{fill:#ebf6ff}.b{font-size: 16px;line-height: 33px;fill: #141f30;font-weight: 400;font-family: "Inter-Regular", "Inter"}.c{font-size: 24px;fill: #141f30;font-weight: 600;font-family: "Inter-SemiBold", "Inter"}.d{fill:#0063d3}</style><g clip-path="url(#cp1)"><path class="a" d="m56 38c-10.5 0-19-8.5-19-19 0-10.5 8.5-19 19-19 10.5 0 19 8.5 19 19 0 10.5-8.5 19-19 19z"/><text style="transform:matrix(1,0,0,1,-3,110)" ><tspan x="19.9" y="11.6" class="b">installation done
</tspan></text><text style="transform:matrix(1,0,0,1,79.5,99)" ><tspan x="-80.1" y="0" class="c" dx="0 1 1 1 1 1 1 1 1 1 1 1" >Appointment
</tspan></text><path class="d" d="m95.5 69.3c-5.3 0-10.3-2.6-13.4-6.9-0.3-0.5-0.2-1.1 0.3-1.4 0.4-0.3 1-0.2 1.3 0.3 2.7 3.8 7.1 6.1 11.8 6.1 8 0 14.4-6.5 14.4-14.4 0-7.4-5.5-13.6-12.9-14.4-0.5 0-0.9-0.5-0.9-1 0.1-0.5 0.6-0.9 1.1-0.9 8.3 0.9 14.6 7.9 14.6 16.3 0 9-7.3 16.3-16.3 16.3z"/><path class="d" d="m54.5 62.8h-4.5c-1.5 0-2.8-1.3-2.8-2.9v-36.3c0-0.5 0.4-1 0.9-1h49c0.5 0 0.9 0.5 0.9 1v18.2c0 0.6-0.4 1-0.9 1-0.5 0-1-0.4-1-1v-17.3h-47v35.4c0 0.5 0.4 1 0.9 1h4.5c0.5 0 0.9 0.4 0.9 0.9 0 0.5-0.4 1-0.9 1z"/><path class="d" d="m88.5 62.8h-29.6c-0.5 0-0.9-0.5-0.9-1 0-0.5 0.4-0.9 0.9-0.9h29.6c0.5 0 1 0.4 1 0.9 0 0.5-0.5 1-1 1z"/><path fill-rule="evenodd" class="d" d="m90.4 36h-5.3c-0.7 0-1.3-0.6-1.3-1.3v-5.3c0-0.7 0.6-1.3 1.3-1.3h5.3c0.8 0 1.4 0.6 1.4 1.3v5.3c0 0.7-0.6 1.3-1.4 1.3zm-4.7-1.9h4.2v-4.1h-4.2z"/><path class="d" d="m95.5 65.2c-5.8 0-10.8-4.1-12-9.8-0.1-0.5 0.3-1 0.8-1.1 0.5-0.1 1 0.2 1.1 0.7 0.9 4.8 5.2 8.3 10.1 8.3 5.7 0 10.3-4.6 10.3-10.3 0-5.7-4.6-10.3-10.3-10.3-4.9 0-9.2 3.5-10.1 8.3-0.1 0.5-0.6 0.8-1.1 0.7-0.5-0.1-0.9-0.6-0.8-1.1 1.1-5.7 6.2-9.8 12-9.8 6.7 0 12.2 5.4 12.2 12.2 0 6.7-5.5 12.2-12.2 12.2z"/><path class="d" d="m100.7 53.9h-5.2c-0.5 0-1-0.4-1-0.9v-6.9c0-0.5 0.5-0.9 1-0.9 0.5 0 0.9 0.4 0.9 0.9v5.9h4.3c0.5 0 1 0.5 1 1 0 0.5-0.5 0.9-1 0.9z"/><path class="d" d="m97.1 24.5h-49c-0.5 0-0.9-0.4-0.9-0.9v-7.2c0-1.5 1.3-2.8 2.8-2.8h9.2c0.5 0 0.9 0.4 0.9 0.9 0 0.5-0.4 1-0.9 1h-9.2c-0.5 0-0.9 0.4-0.9 0.9v6.2h47v-6.2c0-0.5-0.4-0.9-0.9-0.9h-31.6c-0.5 0-1-0.5-1-1 0-0.5 0.5-0.9 1-0.9h31.6c1.6 0 2.8 1.3 2.8 2.8v7.2c0 0.5-0.4 0.9-0.9 0.9z"/><path class="d" d="m54.4 18.5c-0.5 0-1-0.4-1-1v-5.2c0-0.6 0.5-1 1-1 0.5 0 0.9 0.4 0.9 1v5.2c0 0.6-0.4 1-0.9 1z"/><path class="d" d="m90.8 18.5c-0.5 0-0.9-0.4-0.9-1v-5.2c0-0.6 0.4-1 0.9-1 0.5 0 1 0.4 1 1v5.2c0 0.6-0.5 1-1 1z"/><path class="d" d="m57.1 56.9c-0.3 0-0.5-0.2-0.7-0.4l-2.7-3.3c-0.4-0.4-0.3-1 0.1-1.3 0.4-0.4 1-0.3 1.3 0.1l1.9 2.3 2.8-4.7c0.2-0.5 0.8-0.6 1.3-0.4 0.4 0.3 0.6 0.9 0.3 1.3l-3.5 5.9c-0.1 0.3-0.4 0.4-0.7 0.5q0 0-0.1 0z"/><path fill-rule="evenodd" class="d" d="m60.1 36h-5.3c-0.8 0-1.4-0.6-1.4-1.3v-5.3c0-0.7 0.6-1.3 1.4-1.3h5.3c0.7 0 1.3 0.6 1.3 1.3v5.3c0 0.7-0.6 1.3-1.3 1.3zm-4.8-1.9h4.2v-4.1h-4.2z"/><path fill-rule="evenodd" class="d" d="m70.2 36h-5.3c-0.7 0-1.3-0.6-1.3-1.3v-5.3c0-0.7 0.6-1.3 1.3-1.3h5.3c0.7 0 1.3 0.6 1.3 1.3v5.3c0 0.7-0.6 1.3-1.3 1.3zm-4.7-1.9h4.1v-4.1h-4.1z"/><path fill-rule="evenodd" class="d" d="m80.3 36h-5.3c-0.7 0-1.3-0.6-1.3-1.3v-5.3c0-0.7 0.6-1.3 1.3-1.3h5.3c0.7 0 1.3 0.6 1.3 1.3v5.3c0 0.7-0.6 1.3-1.3 1.3zm-4.7-1.9h4.1v-4.1h-4.1z"/><path fill-rule="evenodd" class="d" d="m60.1 46.4h-5.3c-0.8 0-1.4-0.6-1.4-1.3v-5.3c0-0.7 0.6-1.3 1.4-1.3h5.3c0.7 0 1.3 0.6 1.3 1.3v5.3c0 0.7-0.6 1.3-1.3 1.3zm-4.8-1.8h4.2v-4.2h-4.2z"/><path fill-rule="evenodd" class="d" d="m70.2 46.4h-5.3c-0.7 0-1.3-0.6-1.3-1.3v-5.3c0-0.7 0.6-1.3 1.3-1.3h5.3c0.7 0 1.3 0.6 1.3 1.3v5.3c0 0.7-0.6 1.3-1.3 1.3zm-4.7-1.8h4.1v-4.2h-4.1z"/><path fill-rule="evenodd" class="d" d="m80.3 46.4h-5.3c-0.7 0-1.3-0.6-1.3-1.3v-5.3c0-0.7 0.6-1.3 1.3-1.3h5.3c0.7 0 1.3 0.6 1.3 1.3v5.3c0 0.7-0.6 1.3-1.3 1.3zm-4.7-1.8h4.1v-4.2h-4.1z"/><path fill-rule="evenodd" class="d" d="m60.1 36h-5.3c-0.8 0-1.4-0.6-1.4-1.3v-5.3c0-0.7 0.6-1.3 1.4-1.3h5.3c0.7 0 1.3 0.6 1.3 1.3v5.3c0 0.7-0.6 1.3-1.3 1.3zm-4.8-1.9h4.2v-4.1h-4.2z"/><path fill-rule="evenodd" class="d" d="m70.2 36h-5.3c-0.7 0-1.3-0.6-1.3-1.3v-5.3c0-0.7 0.6-1.3 1.3-1.3h5.3c0.7 0 1.3 0.6 1.3 1.3v5.3c0 0.7-0.6 1.3-1.3 1.3zm-4.7-1.9h4.1v-4.1h-4.1z"/><path fill-rule="evenodd" class="d" d="m80.3 36h-5.3c-0.7 0-1.3-0.6-1.3-1.3v-5.3c0-0.7 0.6-1.3 1.3-1.3h5.3c0.7 0 1.3 0.6 1.3 1.3v5.3c0 0.7-0.6 1.3-1.3 1.3zm-4.7-1.9h4.1v-4.1h-4.1z"/><path fill-rule="evenodd" class="d" d="m60.1 46.4h-5.3c-0.8 0-1.4-0.6-1.4-1.3v-5.3c0-0.7 0.6-1.3 1.4-1.3h5.3c0.7 0 1.3 0.6 1.3 1.3v5.3c0 0.7-0.6 1.3-1.3 1.3zm-4.8-1.8h4.2v-4.2h-4.2z"/><path fill-rule="evenodd" class="d" d="m70.2 46.4h-5.3c-0.7 0-1.3-0.6-1.3-1.3v-5.3c0-0.7 0.6-1.3 1.3-1.3h5.3c0.7 0 1.3 0.6 1.3 1.3v5.3c0 0.7-0.6 1.3-1.3 1.3zm-4.7-1.8h4.1v-4.2h-4.1z"/><path fill-rule="evenodd" class="d" d="m80.3 46.4h-5.3c-0.7 0-1.3-0.6-1.3-1.3v-5.3c0-0.7 0.6-1.3 1.3-1.3h5.3c0.7 0 1.3 0.6 1.3 1.3v5.3c0 0.7-0.6 1.3-1.3 1.3zm-4.7-1.8h4.1v-4.2h-4.1z"/><path fill-rule="evenodd" class="d" d="m70.2 56.9h-5.3c-0.7 0-1.3-0.6-1.3-1.4v-5.2c0-0.8 0.6-1.4 1.3-1.4h5.3c0.7 0 1.3 0.6 1.3 1.4v5.2c0 0.8-0.6 1.4-1.3 1.4zm-4.7-1.9h4.1v-4.2h-4.1z"/><path fill-rule="evenodd" class="d" d="m80.3 56.9h-5.3c-0.7 0-1.3-0.6-1.3-1.4v-5.2c0-0.8 0.6-1.4 1.3-1.4h5.3c0.7 0 1.3 0.6 1.3 1.4v5.2c0 0.8-0.6 1.4-1.3 1.4zm-4.7-1.9h4.1v-4.2h-4.1z"/></g></svg>