<svg width="84" height="103" viewBox="0 0 84 103" fill="none" xmlns="http://www.w3.org/2000/svg">
<g clip-path="url(#clip0_8_118)">
<mask id="mask0_8_118" style="mask-type:luminance" maskUnits="userSpaceOnUse" x="-120" y="-2627" width="1440" height="5730">
<path d="M-120 -2627H1320V3103H-120V-2627Z" fill="white"/>
</mask>
<g mask="url(#mask0_8_118)">
<path d="M19 38C8.5 38 0 29.5 0 19C0 8.5 8.5 0 19 0C29.5 0 38 8.5 38 19C38 29.5 29.5 38 19 38Z" fill="#EBF6FF"/>
</g>
</g>
<g clip-path="url(#clip1_8_118)">
<mask id="mask1_8_118" style="mask-type:luminance" maskUnits="userSpaceOnUse" x="-111" y="-2619" width="1440" height="5730">
<path d="M-111 -2619H1329V3111H-111V-2619Z" fill="white"/>
</mask>
<g mask="url(#mask1_8_118)">
<path d="M67.5 77.3001C62.2 77.3001 57.2 74.7001 54.1 70.4001C53.8 69.9001 53.9 69.3001 54.4 69.0001C54.8 68.7001 55.4 68.8001 55.7 69.3001C58.4 73.1001 62.8 75.4001 67.5 75.4001C75.5 75.4001 81.9 68.9001 81.9 61.0001C81.9 53.6001 76.4 47.4001 69 46.6001C68.5 46.6001 68.1 46.1001 68.1 45.6001C68.2 45.1001 68.7 44.7001 69.2 44.7001C77.5 45.6001 83.8 52.6001 83.8 61.0001C83.8 70.0001 76.5 77.3001 67.5 77.3001Z" fill="#0063D3"/>
<path d="M26.5 70.8H22C20.5 70.8 19.2 69.5 19.2 67.9V31.6C19.2 31.1 19.6 30.6 20.1 30.6H69.1C69.6 30.6 70 31.1 70 31.6V49.8C70 50.4 69.6 50.8 69.1 50.8C68.6 50.8 68.1 50.4 68.1 49.8V32.5H21.1V67.9C21.1 68.4 21.5 68.9 22 68.9H26.5C27 68.9 27.4 69.3 27.4 69.8C27.4 70.3 27 70.8 26.5 70.8Z" fill="#0063D3"/>
<path d="M60.5 70.8H30.9C30.4 70.8 30 70.3 30 69.8C30 69.3 30.4 68.9 30.9 68.9H60.5C61 68.9 61.5 69.3 61.5 69.8C61.5 70.3 61 70.8 60.5 70.8Z" fill="#0063D3"/>
<path d="M59.1 54.4001H57.1C56.4 54.4001 55.8 53.8001 55.8 53.1001V47.8001C55.8 47.1001 56.4 46.5001 57.1 46.5001H62.4C63.2 46.5001 63.8 47.1001 63.8 47.8001V50.7001C63.8 51.3001 63.3 51.7001 62.8 51.7001C62.3 51.7001 61.9 51.3001 61.9 50.7001V48.4001H57.7V52.6001H59.1C59.6 52.6001 60 53.0001 60 53.5001C60 54.0001 59.6 54.4001 59.1 54.4001Z" fill="#0063D3"/>
<path fill-rule="evenodd" clip-rule="evenodd" d="M62.4 44H57.1C56.4 44 55.8 43.4 55.8 42.7V37.4C55.8 36.7 56.4 36.1 57.1 36.1H62.4C63.2 36.1 63.8 36.7 63.8 37.4V42.7C63.8 43.4 63.2 44 62.4 44ZM57.7 42.1H61.9V38H57.7V42.1Z" fill="#0063D3"/>
<path d="M67.5 73.2001C61.7 73.2001 56.7 69.1001 55.5 63.4001C55.4 62.9001 55.8 62.4 56.3 62.3C56.8 62.2 57.3 62.5 57.4 63C58.3 67.8 62.6 71.3 67.5 71.3C73.2 71.3 77.8 66.7 77.8 61C77.8 55.3 73.2 50.7001 67.5 50.7001C62.6 50.7001 58.3 54.2 57.4 59C57.3 59.5 56.8 59.8001 56.3 59.7001C55.8 59.6001 55.4 59.1 55.5 58.6C56.6 52.9 61.7 48.8 67.5 48.8C74.2 48.8 79.7 54.2 79.7 61C79.7 67.7 74.2 73.2001 67.5 73.2001Z" fill="#0063D3"/>
<path d="M72.7 61.9001H67.5C67 61.9001 66.5 61.5001 66.5 61.0001V54.1001C66.5 53.6001 67 53.2001 67.5 53.2001C68 53.2001 68.4 53.6001 68.4 54.1001V60.0001H72.7C73.2 60.0001 73.7 60.5001 73.7 61.0001C73.7 61.5001 73.2 61.9001 72.7 61.9001Z" fill="#0063D3"/>
<path d="M69.1 32.5H20.1C19.6 32.5 19.2 32.1 19.2 31.6V24.4C19.2 22.9 20.5 21.6 22 21.6H31.2C31.7 21.6 32.1 22 32.1 22.5C32.1 23 31.7 23.5 31.2 23.5H22C21.5 23.5 21.1 23.9 21.1 24.4V30.6H68.1V24.4C68.1 23.9 67.7 23.5 67.2 23.5H35.6C35.1 23.5 34.6 23 34.6 22.5C34.6 22 35.1 21.6 35.6 21.6H67.2C68.8 21.6 70 22.9 70 24.4V31.6C70 32.1 69.6 32.5 69.1 32.5Z" fill="#0063D3"/>
<path d="M26.4 26.5C25.9 26.5 25.4 26.1 25.4 25.5V20.3C25.4 19.7 25.9 19.3 26.4 19.3C26.9 19.3 27.3 19.7 27.3 20.3V25.5C27.3 26.1 26.9 26.5 26.4 26.5Z" fill="#0063D3"/>
<path d="M62.8 26.5C62.3 26.5 61.9 26.1 61.9 25.5V20.3C61.9 19.7 62.3 19.3 62.8 19.3C63.3 19.3 63.8 19.7 63.8 20.3V25.5C63.8 26.1 63.3 26.5 62.8 26.5Z" fill="#0063D3"/>
<path d="M29.1 64.9C28.8 64.9 28.6 64.7 28.4 64.5L25.7 61.2C25.3 60.8 25.4 60.2 25.8 59.9C26.2 59.5 26.8 59.6 27.1 60L29 62.3L31.8 57.6C32 57.1 32.6 57 33.1 57.2C33.5 57.5 33.7 58.1 33.4 58.5L29.9 64.4C29.8 64.7 29.5 64.8 29.2 64.9C29.2 64.9 29.1667 64.9 29.1 64.9Z" fill="#0063D3"/>
<path fill-rule="evenodd" clip-rule="evenodd" d="M32.1 44H26.8C26 44 25.4 43.4 25.4 42.7V37.4C25.4 36.7 26 36.1 26.8 36.1H32.1C32.8 36.1 33.4 36.7 33.4 37.4V42.7C33.4 43.4 32.8 44 32.1 44ZM27.3 42.1H31.5V38H27.3V42.1Z" fill="#0063D3"/>
<path fill-rule="evenodd" clip-rule="evenodd" d="M42.2 44H36.9C36.2 44 35.6 43.4 35.6 42.7V37.4C35.6 36.7 36.2 36.1 36.9 36.1H42.2C42.9 36.1 43.5 36.7 43.5 37.4V42.7C43.5 43.4 42.9 44 42.2 44ZM37.5 42.1H41.6V38H37.5V42.1Z" fill="#0063D3"/>
<path fill-rule="evenodd" clip-rule="evenodd" d="M52.3 44H47C46.3 44 45.7 43.4 45.7 42.7V37.4C45.7 36.7 46.3 36.1 47 36.1H52.3C53 36.1 53.6 36.7 53.6 37.4V42.7C53.6 43.4 53 44 52.3 44ZM47.6 42.1H51.7V38H47.6V42.1Z" fill="#0063D3"/>
<path fill-rule="evenodd" clip-rule="evenodd" d="M32.1 54.4001H26.8C26 54.4001 25.4 53.8001 25.4 53.1001V47.8001C25.4 47.1001 26 46.5001 26.8 46.5001H32.1C32.8 46.5001 33.4 47.1001 33.4 47.8001V53.1001C33.4 53.8001 32.8 54.4001 32.1 54.4001ZM27.3 52.6001H31.5V48.4001H27.3V52.6001Z" fill="#0063D3"/>
<path fill-rule="evenodd" clip-rule="evenodd" d="M42.2 54.4001H36.9C36.2 54.4001 35.6 53.8001 35.6 53.1001V47.8001C35.6 47.1001 36.2 46.5001 36.9 46.5001H42.2C42.9 46.5001 43.5 47.1001 43.5 47.8001V53.1001C43.5 53.8001 42.9 54.4001 42.2 54.4001ZM37.5 52.6001H41.6V48.4001H37.5V52.6001Z" fill="#0063D3"/>
<path fill-rule="evenodd" clip-rule="evenodd" d="M52.3 54.4001H47C46.3 54.4001 45.7 53.8001 45.7 53.1001V47.8001C45.7 47.1001 46.3 46.5001 47 46.5001H52.3C53 46.5001 53.6 47.1001 53.6 47.8001V53.1001C53.6 53.8001 53 54.4001 52.3 54.4001ZM47.6 52.6001H51.7V48.4001H47.6V52.6001Z" fill="#0063D3"/>
<path fill-rule="evenodd" clip-rule="evenodd" d="M32.1 44H26.8C26 44 25.4 43.4 25.4 42.7V37.4C25.4 36.7 26 36.1 26.8 36.1H32.1C32.8 36.1 33.4 36.7 33.4 37.4V42.7C33.4 43.4 32.8 44 32.1 44ZM27.3 42.1H31.5V38H27.3V42.1Z" fill="#0063D3"/>
<path fill-rule="evenodd" clip-rule="evenodd" d="M42.2 44H36.9C36.2 44 35.6 43.4 35.6 42.7V37.4C35.6 36.7 36.2 36.1 36.9 36.1H42.2C42.9 36.1 43.5 36.7 43.5 37.4V42.7C43.5 43.4 42.9 44 42.2 44ZM37.5 42.1H41.6V38H37.5V42.1Z" fill="#0063D3"/>
<path fill-rule="evenodd" clip-rule="evenodd" d="M52.3 44H47C46.3 44 45.7 43.4 45.7 42.7V37.4C45.7 36.7 46.3 36.1 47 36.1H52.3C53 36.1 53.6 36.7 53.6 37.4V42.7C53.6 43.4 53 44 52.3 44ZM47.6 42.1H51.7V38H47.6V42.1Z" fill="#0063D3"/>
<path fill-rule="evenodd" clip-rule="evenodd" d="M32.1 54.4001H26.8C26 54.4001 25.4 53.8001 25.4 53.1001V47.8001C25.4 47.1001 26 46.5001 26.8 46.5001H32.1C32.8 46.5001 33.4 47.1001 33.4 47.8001V53.1001C33.4 53.8001 32.8 54.4001 32.1 54.4001ZM27.3 52.6001H31.5V48.4001H27.3V52.6001Z" fill="#0063D3"/>
<path fill-rule="evenodd" clip-rule="evenodd" d="M42.2 54.4001H36.9C36.2 54.4001 35.6 53.8001 35.6 53.1001V47.8001C35.6 47.1001 36.2 46.5001 36.9 46.5001H42.2C42.9 46.5001 43.5 47.1001 43.5 47.8001V53.1001C43.5 53.8001 42.9 54.4001 42.2 54.4001ZM37.5 52.6001H41.6V48.4001H37.5V52.6001Z" fill="#0063D3"/>
<path fill-rule="evenodd" clip-rule="evenodd" d="M52.3 54.4001H47C46.3 54.4001 45.7 53.8001 45.7 53.1001V47.8001C45.7 47.1001 46.3 46.5001 47 46.5001H52.3C53 46.5001 53.6 47.1001 53.6 47.8001V53.1001C53.6 53.8001 53 54.4001 52.3 54.4001ZM47.6 52.6001H51.7V48.4001H47.6V52.6001Z" fill="#0063D3"/>
<path fill-rule="evenodd" clip-rule="evenodd" d="M42.2 64.9H36.9C36.2 64.9 35.6 64.3 35.6 63.5V58.3C35.6 57.5 36.2 56.9 36.9 56.9H42.2C42.9 56.9 43.5 57.5 43.5 58.3V63.5C43.5 64.3 42.9 64.9 42.2 64.9ZM37.5 63H41.6V58.8H37.5V63Z" fill="#0063D3"/>
<path fill-rule="evenodd" clip-rule="evenodd" d="M52.3 64.9H47C46.3 64.9 45.7 64.3 45.7 63.5V58.3C45.7 57.5 46.3 56.9 47 56.9H52.3C53 56.9 53.6 57.5 53.6 58.3V63.5C53.6 64.3 53 64.9 52.3 64.9ZM47.6 63H51.7V58.8H47.6V63Z" fill="#0063D3"/>
</g>
</g>
<path d="M22.1445 90.2617C22.1445 90.8411 22.0892 91.4108 21.9785 91.9707C21.8678 92.5306 21.6953 93.0612 21.4609 93.5625C21.2266 94.0638 20.9238 94.526 20.5527 94.9492C20.1882 95.3659 19.7487 95.7272 19.2344 96.0332C18.7201 96.3392 18.1276 96.5768 17.457 96.7461C16.7865 96.9154 16.0345 97 15.2012 97H9.64453V96.1406L10.6992 96.0625C10.8424 96.0495 10.9499 95.9974 11.0215 95.9062C11.0996 95.8151 11.1387 95.7207 11.1387 95.623V84.959C11.1387 84.8613 11.0996 84.7669 11.0215 84.6758C10.9499 84.5846 10.8424 84.5326 10.6992 84.5195L9.64453 84.4414V83.582H14.8008C15.849 83.582 16.8223 83.7155 17.7207 83.9824C18.6191 84.2428 19.3939 84.6465 20.0449 85.1934C20.7025 85.7402 21.2168 86.4336 21.5879 87.2734C21.959 88.1133 22.1445 89.1094 22.1445 90.2617ZM19.8789 90.3008C19.8789 89.2526 19.7552 88.3639 19.5078 87.6348C19.2669 86.8991 18.9186 86.3034 18.4629 85.8477C18.0137 85.3854 17.4668 85.0534 16.8223 84.8516C16.1842 84.6432 15.4714 84.5391 14.6836 84.5391H13.1602V96.043L14.7812 96.0234C15.5495 96.0169 16.2461 95.9095 16.8711 95.7012C17.5026 95.4863 18.0397 95.151 18.4824 94.6953C18.9251 94.2396 19.2669 93.6504 19.5078 92.9277C19.7552 92.2051 19.8789 91.3294 19.8789 90.3008ZM32.0469 96.0039C31.7669 96.1797 31.474 96.3424 31.168 96.4922C30.8685 96.6419 30.556 96.7721 30.2305 96.8828C29.9115 96.9935 29.5859 97.0814 29.2539 97.1465C28.9219 97.2116 28.5866 97.2441 28.248 97.2441C27.6426 97.2441 27.0599 97.1432 26.5 96.9414C25.9401 96.7331 25.4453 96.4238 25.0156 96.0137C24.5924 95.6035 24.2507 95.0892 23.9902 94.4707C23.7363 93.8457 23.6094 93.1165 23.6094 92.2832C23.6094 91.502 23.7266 90.7956 23.9609 90.1641C24.1953 89.526 24.5208 88.9824 24.9375 88.5332C25.3542 88.0775 25.849 87.7292 26.4219 87.4883C26.9948 87.2409 27.623 87.1172 28.3066 87.1172C28.9251 87.1172 29.4688 87.2214 29.9375 87.4297C30.4062 87.6315 30.7969 87.9147 31.1094 88.2793C31.4219 88.6374 31.6562 89.0703 31.8125 89.5781C31.9688 90.0794 32.0469 90.6263 32.0469 91.2188V91.4824C32.0469 91.5866 32.0404 91.6842 32.0273 91.7754H25.543C25.543 92.2832 25.5951 92.791 25.6992 93.2988C25.8099 93.8066 25.9922 94.2624 26.2461 94.666C26.5 95.0697 26.8418 95.3984 27.2715 95.6523C27.7012 95.8997 28.2383 96.0234 28.8828 96.0234C29.1693 96.0234 29.4525 95.9876 29.7324 95.916C30.0124 95.8379 30.2858 95.7402 30.5527 95.623C30.8262 95.5059 31.0866 95.3757 31.334 95.2324C31.5814 95.0827 31.819 94.9329 32.0469 94.7832V96.0039ZM30.0449 90.4375C30.0449 90.1055 30.0059 89.7995 29.9277 89.5195C29.8496 89.2331 29.7292 88.9857 29.5664 88.7773C29.4102 88.569 29.2083 88.4062 28.9609 88.2891C28.7201 88.1654 28.4336 88.1035 28.1016 88.1035C27.7695 88.1035 27.4603 88.1686 27.1738 88.2988C26.8874 88.4225 26.6335 88.6048 26.4121 88.8457C26.1973 89.0866 26.0215 89.3796 25.8848 89.7246C25.7546 90.0632 25.6764 90.4473 25.6504 90.877H30.0449V90.4375ZM33.2676 97V96.2188L34.332 96.1602C34.4232 96.1602 34.5176 96.1146 34.6152 96.0234C34.7194 95.9258 34.7715 95.8314 34.7715 95.7402V83.6992H33.248V83.0352L35.8066 82.2637H36.627V95.7402C36.627 95.8314 36.6725 95.9258 36.7637 96.0234C36.8613 96.1146 36.9557 96.1602 37.0469 96.1602L38.1309 96.2188V97H33.2676ZM43.0234 84.0605C43.0234 84.2298 42.9909 84.3926 42.9258 84.5488C42.8672 84.6986 42.7826 84.8288 42.6719 84.9395C42.5612 85.0501 42.431 85.138 42.2812 85.2031C42.138 85.2682 41.9818 85.3008 41.8125 85.3008C41.6432 85.3008 41.4805 85.2682 41.3242 85.2031C41.1745 85.138 41.0443 85.0501 40.9336 84.9395C40.8229 84.8288 40.735 84.6986 40.6699 84.5488C40.6048 84.3926 40.5723 84.2298 40.5723 84.0605C40.5723 83.8913 40.6048 83.7318 40.6699 83.582C40.735 83.4323 40.8229 83.3021 40.9336 83.1914C41.0443 83.0807 41.1745 82.9961 41.3242 82.9375C41.4805 82.8724 41.6432 82.8398 41.8125 82.8398C41.9818 82.8398 42.138 82.8724 42.2812 82.9375C42.431 82.9961 42.5612 83.0807 42.6719 83.1914C42.7826 83.3021 42.8672 83.4323 42.9258 83.582C42.9909 83.7318 43.0234 83.8913 43.0234 84.0605ZM39.3516 97V96.2188L40.3281 96.1602C40.4518 96.1471 40.5527 96.1016 40.6309 96.0234C40.709 95.9453 40.748 95.8444 40.748 95.7207V88.582H39.3711V87.8789L41.8125 87.1172H42.6035V95.7207C42.6035 95.8444 42.6426 95.9453 42.7207 96.0234C42.8053 96.1016 42.9062 96.1471 43.0234 96.1602L44.0488 96.2188V97H39.3516ZM54.0586 88.2598L50.5625 97H49.2637L46.041 88.2598L44.9375 88.1426V87.3613H49.3613V88.1426L48.4043 88.2012C48.3132 88.2142 48.235 88.25 48.1699 88.3086C48.1113 88.3607 48.082 88.4323 48.082 88.5234C48.082 88.5495 48.0885 88.5885 48.1016 88.6406L50.3379 94.9004L52.7988 88.6406C52.8184 88.6016 52.8281 88.5592 52.8281 88.5137C52.8281 88.4355 52.7988 88.3672 52.7402 88.3086C52.6882 88.2435 52.6165 88.2077 52.5254 88.2012L51.627 88.1426V87.3613H55.123V88.1426L54.0586 88.2598ZM64.4492 96.0039C64.1693 96.1797 63.8763 96.3424 63.5703 96.4922C63.2708 96.6419 62.9583 96.7721 62.6328 96.8828C62.3138 96.9935 61.9883 97.0814 61.6562 97.1465C61.3242 97.2116 60.9889 97.2441 60.6504 97.2441C60.0449 97.2441 59.4622 97.1432 58.9023 96.9414C58.3424 96.7331 57.8477 96.4238 57.418 96.0137C56.9948 95.6035 56.653 95.0892 56.3926 94.4707C56.1387 93.8457 56.0117 93.1165 56.0117 92.2832C56.0117 91.502 56.1289 90.7956 56.3633 90.1641C56.5977 89.526 56.9232 88.9824 57.3398 88.5332C57.7565 88.0775 58.2513 87.7292 58.8242 87.4883C59.3971 87.2409 60.0254 87.1172 60.709 87.1172C61.3275 87.1172 61.8711 87.2214 62.3398 87.4297C62.8086 87.6315 63.1992 87.9147 63.5117 88.2793C63.8242 88.6374 64.0586 89.0703 64.2148 89.5781C64.3711 90.0794 64.4492 90.6263 64.4492 91.2188V91.4824C64.4492 91.5866 64.4427 91.6842 64.4297 91.7754H57.9453C57.9453 92.2832 57.9974 92.791 58.1016 93.2988C58.2122 93.8066 58.3945 94.2624 58.6484 94.666C58.9023 95.0697 59.2441 95.3984 59.6738 95.6523C60.1035 95.8997 60.6406 96.0234 61.2852 96.0234C61.5716 96.0234 61.8548 95.9876 62.1348 95.916C62.4147 95.8379 62.6882 95.7402 62.9551 95.623C63.2285 95.5059 63.4889 95.3757 63.7363 95.2324C63.9837 95.0827 64.2214 94.9329 64.4492 94.7832V96.0039ZM62.4473 90.4375C62.4473 90.1055 62.4082 89.7995 62.3301 89.5195C62.252 89.2331 62.1315 88.9857 61.9688 88.7773C61.8125 88.569 61.6107 88.4062 61.3633 88.2891C61.1224 88.1654 60.8359 88.1035 60.5039 88.1035C60.1719 88.1035 59.8626 88.1686 59.5762 88.2988C59.2897 88.4225 59.0358 88.6048 58.8145 88.8457C58.5996 89.0866 58.4238 89.3796 58.2871 89.7246C58.1569 90.0632 58.0788 90.4473 58.0527 90.877H62.4473V90.4375ZM71.9688 89.4023C71.8385 89.2526 71.6888 89.1257 71.5195 89.0215C71.3503 88.9108 71.1419 88.8555 70.8945 88.8555C70.569 88.8555 70.2402 88.9661 69.9082 89.1875C69.5762 89.4023 69.2376 89.7051 68.8926 90.0957V95.7207C68.8926 95.8444 68.9316 95.9486 69.0098 96.0332C69.0879 96.1113 69.1888 96.1536 69.3125 96.1602L70.6309 96.2188V97H65.6309V96.2383L66.6172 96.1602C66.7344 96.1471 66.832 96.1016 66.9102 96.0234C66.9948 95.9453 67.0371 95.8444 67.0371 95.7207V88.7773H65.5918V88.123L68.0723 87.3613H68.8926V89.1387C69.0358 88.9824 69.2083 88.7904 69.4102 88.5625C69.6185 88.3281 69.8398 88.1035 70.0742 87.8887C70.3086 87.6738 70.5495 87.4915 70.7969 87.3418C71.0508 87.1921 71.2949 87.1172 71.5293 87.1172C71.6335 87.1172 71.7441 87.127 71.8613 87.1465C71.9785 87.166 72.0924 87.1921 72.2031 87.2246C72.3138 87.2507 72.4147 87.2832 72.5059 87.3223C72.6035 87.3548 72.6849 87.3874 72.75 87.4199V89.4023H71.9688ZM82.3203 88.2598L78.4824 97.6152C78.4173 97.778 78.3262 97.9961 78.209 98.2695C78.0918 98.543 77.9518 98.8327 77.7891 99.1387C77.6328 99.4512 77.457 99.7572 77.2617 100.057C77.0729 100.356 76.8743 100.61 76.666 100.818C76.4251 101.059 76.1582 101.245 75.8652 101.375C75.5788 101.512 75.2663 101.58 74.9277 101.58C74.6934 101.58 74.485 101.548 74.3027 101.482C74.1204 101.424 73.9674 101.342 73.8438 101.238C73.7201 101.134 73.6257 101.01 73.5605 100.867C73.4954 100.73 73.4629 100.587 73.4629 100.438C73.4629 100.21 73.5117 99.998 73.6094 99.8027C73.7135 99.6139 73.8796 99.4251 74.1074 99.2363L75.9824 100.096C76.1452 99.9329 76.3112 99.7181 76.4805 99.4512C76.6497 99.1908 76.8092 98.9141 76.959 98.6211C77.1087 98.3281 77.2454 98.0352 77.3691 97.7422C77.4928 97.4557 77.5905 97.2018 77.6621 96.9805L74.2637 88.2598L73.1602 88.1426V87.3613H77.584V88.1426L76.627 88.2012C76.5358 88.2142 76.4577 88.25 76.3926 88.3086C76.334 88.3672 76.3047 88.4388 76.3047 88.5234C76.3047 88.5755 76.3112 88.6146 76.3242 88.6406L78.6484 94.5391L81.0215 88.6406C81.041 88.6016 81.0508 88.5592 81.0508 88.5137C81.0508 88.4355 81.0215 88.3672 80.9629 88.3086C80.9108 88.2435 80.8392 88.2077 80.748 88.2012L79.8008 88.1426V87.3613H83.3652V88.1426L82.3203 88.2598Z" fill="black"/>
<defs>
<clipPath id="clip0_8_118">
<rect width="38" height="38" fill="white"/>
</clipPath>
<clipPath id="clip1_8_118">
<rect width="65" height="59" fill="white" transform="translate(19 19)"/>
</clipPath>
</defs>
</svg>
