<svg width="138" height="108" viewBox="0 0 138 108" fill="none" xmlns="http://www.w3.org/2000/svg">
<g clip-path="url(#clip0_8_41)">
<mask id="mask0_8_41" style="mask-type:luminance" maskUnits="userSpaceOnUse" x="-102" y="-2627" width="1440" height="5730">
<path d="M-102 -2627H1338V3103H-102V-2627Z" fill="white"/>
</mask>
<g mask="url(#mask0_8_41)">
<path d="M37 38C26.5 38 18 29.5 18 19C18 8.5 26.5 0 37 0C47.5 0 56 8.5 56 19C56 29.5 47.5 38 37 38Z" fill="#EBF6FF"/>
</g>
</g>
<g clip-path="url(#clip1_8_41)">
<mask id="mask1_8_41" style="mask-type:luminance" maskUnits="userSpaceOnUse" x="-93" y="-2619" width="1440" height="5730">
<path d="M-93 -2619H1347V3111H-93V-2619Z" fill="white"/>
</mask>
<g mask="url(#mask1_8_41)">
<path d="M85.5 77.3001C80.2 77.3001 75.2 74.7001 72.1 70.4001C71.8 69.9001 71.9 69.3001 72.4 69.0001C72.8 68.7001 73.4 68.8001 73.7 69.3001C76.4 73.1001 80.8 75.4001 85.5 75.4001C93.5 75.4001 99.9 68.9001 99.9 61.0001C99.9 53.6001 94.4 47.4001 87 46.6001C86.5 46.6001 86.1 46.1001 86.1 45.6001C86.2 45.1001 86.7 44.7001 87.2 44.7001C95.5 45.6001 101.8 52.6001 101.8 61.0001C101.8 70.0001 94.5 77.3001 85.5 77.3001Z" fill="#0063D3"/>
<path d="M44.5 70.8H40C38.5 70.8 37.2 69.5 37.2 67.9V31.6C37.2 31.1 37.6 30.6 38.1 30.6H87.1C87.6 30.6 88 31.1 88 31.6V49.8C88 50.4 87.6 50.8 87.1 50.8C86.6 50.8 86.1 50.4 86.1 49.8V32.5H39.1V67.9C39.1 68.4 39.5 68.9 40 68.9H44.5C45 68.9 45.4 69.3 45.4 69.8C45.4 70.3 45 70.8 44.5 70.8Z" fill="#0063D3"/>
<path d="M78.5 70.8H48.9C48.4 70.8 48 70.3 48 69.8C48 69.3 48.4 68.9 48.9 68.9H78.5C79 68.9 79.5 69.3 79.5 69.8C79.5 70.3 79 70.8 78.5 70.8Z" fill="#0063D3"/>
<path d="M77.1 54.4001H75.1C74.4 54.4001 73.8 53.8001 73.8 53.1001V47.8001C73.8 47.1001 74.4 46.5001 75.1 46.5001H80.4C81.2 46.5001 81.8 47.1001 81.8 47.8001V50.7001C81.8 51.3001 81.3 51.7001 80.8 51.7001C80.3 51.7001 79.9 51.3001 79.9 50.7001V48.4001H75.7V52.6001H77.1C77.6 52.6001 78 53.0001 78 53.5001C78 54.0001 77.6 54.4001 77.1 54.4001Z" fill="#0063D3"/>
<path fill-rule="evenodd" clip-rule="evenodd" d="M80.4 44H75.1C74.4 44 73.8 43.4 73.8 42.7V37.4C73.8 36.7 74.4 36.1 75.1 36.1H80.4C81.2 36.1 81.8 36.7 81.8 37.4V42.7C81.8 43.4 81.2 44 80.4 44ZM75.7 42.1H79.9V38H75.7V42.1Z" fill="#0063D3"/>
<path d="M85.5 73.2001C79.7 73.2001 74.7 69.1001 73.5 63.4001C73.4 62.9001 73.8 62.4 74.3 62.3C74.8 62.2 75.3 62.5 75.4 63C76.3 67.8 80.6 71.3 85.5 71.3C91.2 71.3 95.8 66.7 95.8 61C95.8 55.3 91.2 50.7001 85.5 50.7001C80.6 50.7001 76.3 54.2 75.4 59C75.3 59.5 74.8 59.8001 74.3 59.7001C73.8 59.6001 73.4 59.1 73.5 58.6C74.6 52.9 79.7 48.8 85.5 48.8C92.2 48.8 97.7 54.2 97.7 61C97.7 67.7 92.2 73.2001 85.5 73.2001Z" fill="#0063D3"/>
<path d="M90.7 61.9001H85.5C85 61.9001 84.5 61.5001 84.5 61.0001V54.1001C84.5 53.6001 85 53.2001 85.5 53.2001C86 53.2001 86.4 53.6001 86.4 54.1001V60.0001H90.7C91.2 60.0001 91.7 60.5001 91.7 61.0001C91.7 61.5001 91.2 61.9001 90.7 61.9001Z" fill="#0063D3"/>
<path d="M87.1 32.5H38.1C37.6 32.5 37.2 32.1 37.2 31.6V24.4C37.2 22.9 38.5 21.6 40 21.6H49.2C49.7 21.6 50.1 22 50.1 22.5C50.1 23 49.7 23.5 49.2 23.5H40C39.5 23.5 39.1 23.9 39.1 24.4V30.6H86.1V24.4C86.1 23.9 85.7 23.5 85.2 23.5H53.6C53.1 23.5 52.6 23 52.6 22.5C52.6 22 53.1 21.6 53.6 21.6H85.2C86.8 21.6 88 22.9 88 24.4V31.6C88 32.1 87.6 32.5 87.1 32.5Z" fill="#0063D3"/>
<path d="M44.4 26.5C43.9 26.5 43.4 26.1 43.4 25.5V20.3C43.4 19.7 43.9 19.3 44.4 19.3C44.9 19.3 45.3 19.7 45.3 20.3V25.5C45.3 26.1 44.9 26.5 44.4 26.5Z" fill="#0063D3"/>
<path d="M80.8 26.5C80.3 26.5 79.9 26.1 79.9 25.5V20.3C79.9 19.7 80.3 19.3 80.8 19.3C81.3 19.3 81.8 19.7 81.8 20.3V25.5C81.8 26.1 81.3 26.5 80.8 26.5Z" fill="#0063D3"/>
<path d="M47.1 64.9C46.8 64.9 46.6 64.7 46.4 64.5L43.7 61.2C43.3 60.8 43.4 60.2 43.8 59.9C44.2 59.5 44.8 59.6 45.1 60L47 62.3L49.8 57.6C50 57.1 50.6 57 51.1 57.2C51.5 57.5 51.7 58.1 51.4 58.5L47.9 64.4C47.8 64.7 47.5 64.8 47.2 64.9C47.2 64.9 47.1667 64.9 47.1 64.9Z" fill="#0063D3"/>
<path fill-rule="evenodd" clip-rule="evenodd" d="M50.1 44H44.8C44 44 43.4 43.4 43.4 42.7V37.4C43.4 36.7 44 36.1 44.8 36.1H50.1C50.8 36.1 51.4 36.7 51.4 37.4V42.7C51.4 43.4 50.8 44 50.1 44ZM45.3 42.1H49.5V38H45.3V42.1Z" fill="#0063D3"/>
<path fill-rule="evenodd" clip-rule="evenodd" d="M60.2 44H54.9C54.2 44 53.6 43.4 53.6 42.7V37.4C53.6 36.7 54.2 36.1 54.9 36.1H60.2C60.9 36.1 61.5 36.7 61.5 37.4V42.7C61.5 43.4 60.9 44 60.2 44ZM55.5 42.1H59.6V38H55.5V42.1Z" fill="#0063D3"/>
<path fill-rule="evenodd" clip-rule="evenodd" d="M70.3 44H65C64.3 44 63.7 43.4 63.7 42.7V37.4C63.7 36.7 64.3 36.1 65 36.1H70.3C71 36.1 71.6 36.7 71.6 37.4V42.7C71.6 43.4 71 44 70.3 44ZM65.6 42.1H69.7V38H65.6V42.1Z" fill="#0063D3"/>
<path fill-rule="evenodd" clip-rule="evenodd" d="M50.1 54.4001H44.8C44 54.4001 43.4 53.8001 43.4 53.1001V47.8001C43.4 47.1001 44 46.5001 44.8 46.5001H50.1C50.8 46.5001 51.4 47.1001 51.4 47.8001V53.1001C51.4 53.8001 50.8 54.4001 50.1 54.4001ZM45.3 52.6001H49.5V48.4001H45.3V52.6001Z" fill="#0063D3"/>
<path fill-rule="evenodd" clip-rule="evenodd" d="M60.2 54.4001H54.9C54.2 54.4001 53.6 53.8001 53.6 53.1001V47.8001C53.6 47.1001 54.2 46.5001 54.9 46.5001H60.2C60.9 46.5001 61.5 47.1001 61.5 47.8001V53.1001C61.5 53.8001 60.9 54.4001 60.2 54.4001ZM55.5 52.6001H59.6V48.4001H55.5V52.6001Z" fill="#0063D3"/>
<path fill-rule="evenodd" clip-rule="evenodd" d="M70.3 54.4001H65C64.3 54.4001 63.7 53.8001 63.7 53.1001V47.8001C63.7 47.1001 64.3 46.5001 65 46.5001H70.3C71 46.5001 71.6 47.1001 71.6 47.8001V53.1001C71.6 53.8001 71 54.4001 70.3 54.4001ZM65.6 52.6001H69.7V48.4001H65.6V52.6001Z" fill="#0063D3"/>
<path fill-rule="evenodd" clip-rule="evenodd" d="M50.1 44H44.8C44 44 43.4 43.4 43.4 42.7V37.4C43.4 36.7 44 36.1 44.8 36.1H50.1C50.8 36.1 51.4 36.7 51.4 37.4V42.7C51.4 43.4 50.8 44 50.1 44ZM45.3 42.1H49.5V38H45.3V42.1Z" fill="#0063D3"/>
<path fill-rule="evenodd" clip-rule="evenodd" d="M60.2 44H54.9C54.2 44 53.6 43.4 53.6 42.7V37.4C53.6 36.7 54.2 36.1 54.9 36.1H60.2C60.9 36.1 61.5 36.7 61.5 37.4V42.7C61.5 43.4 60.9 44 60.2 44ZM55.5 42.1H59.6V38H55.5V42.1Z" fill="#0063D3"/>
<path fill-rule="evenodd" clip-rule="evenodd" d="M70.3 44H65C64.3 44 63.7 43.4 63.7 42.7V37.4C63.7 36.7 64.3 36.1 65 36.1H70.3C71 36.1 71.6 36.7 71.6 37.4V42.7C71.6 43.4 71 44 70.3 44ZM65.6 42.1H69.7V38H65.6V42.1Z" fill="#0063D3"/>
<path fill-rule="evenodd" clip-rule="evenodd" d="M50.1 54.4001H44.8C44 54.4001 43.4 53.8001 43.4 53.1001V47.8001C43.4 47.1001 44 46.5001 44.8 46.5001H50.1C50.8 46.5001 51.4 47.1001 51.4 47.8001V53.1001C51.4 53.8001 50.8 54.4001 50.1 54.4001ZM45.3 52.6001H49.5V48.4001H45.3V52.6001Z" fill="#0063D3"/>
<path fill-rule="evenodd" clip-rule="evenodd" d="M60.2 54.4001H54.9C54.2 54.4001 53.6 53.8001 53.6 53.1001V47.8001C53.6 47.1001 54.2 46.5001 54.9 46.5001H60.2C60.9 46.5001 61.5 47.1001 61.5 47.8001V53.1001C61.5 53.8001 60.9 54.4001 60.2 54.4001ZM55.5 52.6001H59.6V48.4001H55.5V52.6001Z" fill="#0063D3"/>
<path fill-rule="evenodd" clip-rule="evenodd" d="M70.3 54.4001H65C64.3 54.4001 63.7 53.8001 63.7 53.1001V47.8001C63.7 47.1001 64.3 46.5001 65 46.5001H70.3C71 46.5001 71.6 47.1001 71.6 47.8001V53.1001C71.6 53.8001 71 54.4001 70.3 54.4001ZM65.6 52.6001H69.7V48.4001H65.6V52.6001Z" fill="#0063D3"/>
<path fill-rule="evenodd" clip-rule="evenodd" d="M60.2 64.9H54.9C54.2 64.9 53.6 64.3 53.6 63.5V58.3C53.6 57.5 54.2 56.9 54.9 56.9H60.2C60.9 56.9 61.5 57.5 61.5 58.3V63.5C61.5 64.3 60.9 64.9 60.2 64.9ZM55.5 63H59.6V58.8H55.5V63Z" fill="#0063D3"/>
<path fill-rule="evenodd" clip-rule="evenodd" d="M70.3 64.9H65C64.3 64.9 63.7 64.3 63.7 63.5V58.3C63.7 57.5 64.3 56.9 65 56.9H70.3C71 56.9 71.6 57.5 71.6 58.3V63.5C71.6 64.3 71 64.9 70.3 64.9ZM65.6 63H69.7V58.8H65.6V63Z" fill="#0063D3"/>
</g>
</g>
<path d="M0.644531 102V101.141L1.67969 101.062C1.82292 101.049 1.93034 100.997 2.00195 100.906C2.08008 100.815 2.11914 100.721 2.11914 100.623V89.959C2.11914 89.8613 2.08008 89.7669 2.00195 89.6758C1.93034 89.5846 1.82292 89.5326 1.67969 89.5195L0.644531 89.4414V88.582H10.3613V91.5605H9.16016L8.85742 89.9199C8.8444 89.8223 8.80208 89.7344 8.73047 89.6562C8.66536 89.5781 8.58724 89.5391 8.49609 89.5391H4.16016V94.5195H7.1582C7.24935 94.5195 7.33073 94.4805 7.40234 94.4023C7.48047 94.3242 7.51953 94.2493 7.51953 94.1777L7.72461 92.8008H8.74023V97.2637H7.72461L7.51953 95.877C7.51953 95.8053 7.48047 95.7272 7.40234 95.6426C7.32422 95.5579 7.24284 95.5156 7.1582 95.5156H4.16016V101.023H9.21875C9.30339 101.023 9.38151 100.978 9.45312 100.887C9.52474 100.796 9.56706 100.714 9.58008 100.643L9.94141 98.6602H11.0156V102H0.644531ZM18.1836 102V101.219L19.0234 101.16C19.1406 101.147 19.2383 101.102 19.3164 101.023C19.401 100.945 19.4434 100.844 19.4434 100.721V95.5156C19.4434 94.8841 19.2969 94.4056 19.0039 94.0801C18.7109 93.748 18.2161 93.582 17.5195 93.582C17.1354 93.582 16.7578 93.6374 16.3867 93.748C16.0156 93.8522 15.6608 93.9889 15.3223 94.1582V100.721C15.3223 100.844 15.3613 100.945 15.4395 101.023C15.5176 101.102 15.6185 101.147 15.7422 101.16L16.582 101.219V102H12.0605V101.219L13.0371 101.16C13.1608 101.147 13.2617 101.102 13.3398 101.023C13.418 100.945 13.457 100.844 13.457 100.721V93.7773H12.0605V93.123L14.502 92.3613H15.3223V93.3574C15.6022 93.2012 15.8854 93.0482 16.1719 92.8984C16.4648 92.7487 16.7546 92.6152 17.041 92.498C17.3275 92.3809 17.6042 92.2897 17.8711 92.2246C18.138 92.153 18.3887 92.1172 18.623 92.1172C19.4954 92.1172 20.1595 92.3874 20.6152 92.9277C21.071 93.4681 21.2988 94.2266 21.2988 95.2031V100.721C21.2988 100.844 21.3379 100.945 21.416 101.023C21.5007 101.102 21.6016 101.147 21.7188 101.16L22.5977 101.219V102H18.1836ZM28.8477 106.355V105.604L30.0293 105.496C30.1465 105.483 30.2441 105.441 30.3223 105.369C30.4069 105.298 30.4492 105.2 30.4492 105.076V101.463C30.2604 101.554 30.0521 101.645 29.8242 101.736C29.5964 101.827 29.3555 101.912 29.1016 101.99C28.8542 102.062 28.6035 102.12 28.3496 102.166C28.1022 102.218 27.8678 102.244 27.6465 102.244C27.028 102.244 26.4746 102.117 25.9863 101.863C25.498 101.609 25.0846 101.264 24.7461 100.828C24.4076 100.392 24.1471 99.8809 23.9648 99.2949C23.7826 98.709 23.6914 98.084 23.6914 97.4199C23.6914 96.6061 23.8216 95.8737 24.082 95.2227C24.3424 94.5651 24.7201 94.0085 25.2148 93.5527C25.7096 93.0905 26.3151 92.7357 27.0312 92.4883C27.7474 92.2409 28.5612 92.1172 29.4727 92.1172C29.6549 92.1172 29.8665 92.127 30.1074 92.1465C30.3483 92.1595 30.5957 92.179 30.8496 92.2051C31.1035 92.2311 31.3574 92.2669 31.6113 92.3125C31.8652 92.3516 32.0964 92.3939 32.3047 92.4395V105.076C32.3047 105.2 32.3438 105.294 32.4219 105.359C32.5065 105.431 32.6074 105.477 32.7246 105.496L33.6914 105.604V106.355H28.8477ZM30.4492 93.2402C30.2669 93.2012 30.0586 93.1589 29.8242 93.1133C29.5964 93.0612 29.3457 93.0352 29.0723 93.0352C28.5254 93.0352 28.0404 93.1328 27.6172 93.3281C27.2005 93.5234 26.849 93.8001 26.5625 94.1582C26.2826 94.5098 26.0677 94.9362 25.918 95.4375C25.7747 95.9323 25.7031 96.4857 25.7031 97.0977C25.7031 97.612 25.7585 98.11 25.8691 98.5918C25.9863 99.0671 26.1654 99.487 26.4062 99.8516C26.6536 100.216 26.9661 100.509 27.3438 100.73C27.7279 100.952 28.1901 101.062 28.7305 101.062C28.8542 101.062 28.9909 101.056 29.1406 101.043C29.2969 101.023 29.4531 101.001 29.6094 100.975C29.7656 100.949 29.9154 100.919 30.0586 100.887C30.2083 100.848 30.3385 100.812 30.4492 100.779V93.2402ZM41.7676 102V100.857C41.5983 100.988 41.39 101.134 41.1426 101.297C40.9017 101.46 40.638 101.613 40.3516 101.756C40.0716 101.893 39.7754 102.007 39.4629 102.098C39.1569 102.195 38.8574 102.244 38.5645 102.244C38.1348 102.244 37.7474 102.179 37.4023 102.049C37.0638 101.925 36.7741 101.733 36.5332 101.473C36.2988 101.206 36.1165 100.87 35.9863 100.467C35.8626 100.057 35.8008 99.5684 35.8008 99.002V93.582H34.4043V92.8984L36.8652 92.1172H37.666V98.6211C37.666 98.9727 37.6986 99.2884 37.7637 99.5684C37.8353 99.8483 37.946 100.086 38.0957 100.281C38.252 100.477 38.4538 100.626 38.7012 100.73C38.9486 100.828 39.248 100.877 39.5996 100.877C39.8014 100.877 40.0065 100.857 40.2148 100.818C40.4232 100.779 40.6217 100.73 40.8105 100.672C40.9993 100.607 41.1751 100.542 41.3379 100.477C41.5072 100.405 41.6504 100.34 41.7676 100.281V93.582H40.3613V92.8984L42.8027 92.1172H43.623V100.721C43.623 100.844 43.6654 100.945 43.75 101.023C43.8411 101.102 43.9453 101.147 44.0625 101.16L44.9414 101.219V102H41.7676ZM49.7266 89.0605C49.7266 89.2298 49.694 89.3926 49.6289 89.5488C49.5703 89.6986 49.4857 89.8288 49.375 89.9395C49.2643 90.0501 49.1341 90.138 48.9844 90.2031C48.8411 90.2682 48.6849 90.3008 48.5156 90.3008C48.3464 90.3008 48.1836 90.2682 48.0273 90.2031C47.8776 90.138 47.7474 90.0501 47.6367 89.9395C47.526 89.8288 47.4382 89.6986 47.373 89.5488C47.3079 89.3926 47.2754 89.2298 47.2754 89.0605C47.2754 88.8913 47.3079 88.7318 47.373 88.582C47.4382 88.4323 47.526 88.3021 47.6367 88.1914C47.7474 88.0807 47.8776 87.9961 48.0273 87.9375C48.1836 87.8724 48.3464 87.8398 48.5156 87.8398C48.6849 87.8398 48.8411 87.8724 48.9844 87.9375C49.1341 87.9961 49.2643 88.0807 49.375 88.1914C49.4857 88.3021 49.5703 88.4323 49.6289 88.582C49.694 88.7318 49.7266 88.8913 49.7266 89.0605ZM46.0547 102V101.219L47.0312 101.16C47.1549 101.147 47.2559 101.102 47.334 101.023C47.4121 100.945 47.4512 100.844 47.4512 100.721V93.582H46.0742V92.8789L48.5156 92.1172H49.3066V100.721C49.3066 100.844 49.3457 100.945 49.4238 101.023C49.5085 101.102 49.6094 101.147 49.7266 101.16L50.752 101.219V102H46.0547ZM58.2812 94.4023C58.151 94.2526 58.0013 94.1257 57.832 94.0215C57.6628 93.9108 57.4544 93.8555 57.207 93.8555C56.8815 93.8555 56.5527 93.9661 56.2207 94.1875C55.8887 94.4023 55.5501 94.7051 55.2051 95.0957V100.721C55.2051 100.844 55.2441 100.949 55.3223 101.033C55.4004 101.111 55.5013 101.154 55.625 101.16L56.9434 101.219V102H51.9434V101.238L52.9297 101.16C53.0469 101.147 53.1445 101.102 53.2227 101.023C53.3073 100.945 53.3496 100.844 53.3496 100.721V93.7773H51.9043V93.123L54.3848 92.3613H55.2051V94.1387C55.3483 93.9824 55.5208 93.7904 55.7227 93.5625C55.931 93.3281 56.1523 93.1035 56.3867 92.8887C56.6211 92.6738 56.862 92.4915 57.1094 92.3418C57.3633 92.1921 57.6074 92.1172 57.8418 92.1172C57.946 92.1172 58.0566 92.127 58.1738 92.1465C58.291 92.166 58.4049 92.1921 58.5156 92.2246C58.6263 92.2507 58.7272 92.2832 58.8184 92.3223C58.916 92.3548 58.9974 92.3874 59.0625 92.4199V94.4023H58.2812ZM68.6328 93.2598L64.7949 102.615C64.7298 102.778 64.6387 102.996 64.5215 103.27C64.4043 103.543 64.2643 103.833 64.1016 104.139C63.9453 104.451 63.7695 104.757 63.5742 105.057C63.3854 105.356 63.1868 105.61 62.9785 105.818C62.7376 106.059 62.4707 106.245 62.1777 106.375C61.8913 106.512 61.5788 106.58 61.2402 106.58C61.0059 106.58 60.7975 106.548 60.6152 106.482C60.4329 106.424 60.2799 106.342 60.1562 106.238C60.0326 106.134 59.9382 106.01 59.873 105.867C59.8079 105.73 59.7754 105.587 59.7754 105.438C59.7754 105.21 59.8242 104.998 59.9219 104.803C60.026 104.614 60.1921 104.425 60.4199 104.236L62.2949 105.096C62.4577 104.933 62.6237 104.718 62.793 104.451C62.9622 104.191 63.1217 103.914 63.2715 103.621C63.4212 103.328 63.5579 103.035 63.6816 102.742C63.8053 102.456 63.903 102.202 63.9746 101.98L60.5762 93.2598L59.4727 93.1426V92.3613H63.8965V93.1426L62.9395 93.2012C62.8483 93.2142 62.7702 93.25 62.7051 93.3086C62.6465 93.3672 62.6172 93.4388 62.6172 93.5234C62.6172 93.5755 62.6237 93.6146 62.6367 93.6406L64.9609 99.5391L67.334 93.6406C67.3535 93.6016 67.3633 93.5592 67.3633 93.5137C67.3633 93.4355 67.334 93.3672 67.2754 93.3086C67.2233 93.2435 67.1517 93.2077 67.0605 93.2012L66.1133 93.1426V92.3613H69.6777V93.1426L68.6328 93.2598ZM91.8652 102.059C91.8197 102.065 91.7546 102.081 91.6699 102.107C91.5853 102.133 91.4844 102.163 91.3672 102.195C91.25 102.228 91.1198 102.257 90.9766 102.283C90.8398 102.309 90.6966 102.322 90.5469 102.322C89.9479 102.322 89.4629 102.231 89.0918 102.049C88.7207 101.873 88.418 101.639 88.1836 101.346C87.9557 101.046 87.7767 100.708 87.6465 100.33C87.5163 99.9525 87.3958 99.5684 87.2852 99.1777C87.1745 98.7806 87.0508 98.3932 86.9141 98.0156C86.7839 97.638 86.5983 97.3027 86.3574 97.0098C86.1165 96.7103 85.804 96.4727 85.4199 96.2969C85.0358 96.1146 84.5378 96.0234 83.9258 96.0234C83.8216 96.0234 83.7174 96.0267 83.6133 96.0332C83.5091 96.0332 83.4147 96.0365 83.3301 96.043C83.252 96.0495 83.1836 96.056 83.125 96.0625C83.0664 96.0625 83.0339 96.0625 83.0273 96.0625V100.623C83.0273 100.721 83.0599 100.815 83.125 100.906C83.1966 100.997 83.304 101.049 83.4473 101.062L84.502 101.141V102H79.5312V101.141L80.5664 101.062C80.7096 101.049 80.8171 100.997 80.8887 100.906C80.9668 100.815 81.0059 100.721 81.0059 100.623V89.959C81.0059 89.8613 80.9668 89.7669 80.8887 89.6758C80.8171 89.5846 80.7096 89.5326 80.5664 89.5195L79.5312 89.4414V88.582H84.7461C85.5078 88.582 86.1914 88.6439 86.7969 88.7676C87.4023 88.8913 87.9167 89.0931 88.3398 89.373C88.763 89.653 89.0853 90.0208 89.3066 90.4766C89.5345 90.9258 89.6484 91.4792 89.6484 92.1367C89.6484 92.6641 89.5573 93.1165 89.375 93.4941C89.1927 93.8717 88.9486 94.1908 88.6426 94.4512C88.3431 94.7116 87.9948 94.9232 87.5977 95.0859C87.2005 95.2487 86.7904 95.3789 86.3672 95.4766C86.9076 95.6068 87.3405 95.7891 87.666 96.0234C87.9915 96.2513 88.2487 96.5117 88.4375 96.8047C88.6263 97.0977 88.7663 97.4102 88.8574 97.7422C88.9486 98.0677 89.0299 98.3932 89.1016 98.7188C89.1732 99.0378 89.2546 99.3438 89.3457 99.6367C89.4368 99.9297 89.5768 100.19 89.7656 100.418C89.9609 100.646 90.2214 100.828 90.5469 100.965C90.8789 101.095 91.3184 101.16 91.8652 101.16V102.059ZM87.4707 92.2246C87.4707 91.7949 87.4056 91.4173 87.2754 91.0918C87.1452 90.7598 86.9368 90.4798 86.6504 90.252C86.3704 90.0241 86.0059 89.8516 85.5566 89.7344C85.1139 89.6172 84.5768 89.5586 83.9453 89.5586H83.0273V95.0371C83.0404 95.0371 83.0859 95.0404 83.1641 95.0469C83.2422 95.0469 83.3301 95.0469 83.4277 95.0469C83.5319 95.0469 83.6361 95.0501 83.7402 95.0566C83.8509 95.0566 83.9453 95.0566 84.0234 95.0566C84.5768 95.0566 85.0684 95.0111 85.498 94.9199C85.9277 94.8223 86.2891 94.6628 86.582 94.4414C86.875 94.2201 87.0964 93.9303 87.2461 93.5723C87.3958 93.2077 87.4707 92.7585 87.4707 92.2246ZM98.7598 102L98.4961 100.818C98.1445 101.085 97.7832 101.323 97.4121 101.531C97.2493 101.622 97.0768 101.71 96.8945 101.795C96.7122 101.88 96.5234 101.954 96.3281 102.02C96.1393 102.091 95.944 102.146 95.7422 102.186C95.5469 102.225 95.3516 102.244 95.1562 102.244C94.7917 102.244 94.4499 102.182 94.1309 102.059C93.8184 101.935 93.5449 101.756 93.3105 101.521C93.0762 101.287 92.8906 101.004 92.7539 100.672C92.6237 100.34 92.5586 99.9622 92.5586 99.5391C92.5586 99.2917 92.5814 99.0573 92.627 98.8359C92.679 98.6146 92.7799 98.3997 92.9297 98.1914C93.0794 97.9831 93.2878 97.7845 93.5547 97.5957C93.8281 97.4004 94.1829 97.2083 94.6191 97.0195C95.0618 96.8307 95.599 96.6452 96.2305 96.4629C96.8685 96.2741 97.6237 96.0853 98.4961 95.8965V95.0371C98.4961 94.3665 98.3464 93.8717 98.0469 93.5527C97.7474 93.2272 97.2754 93.0645 96.6309 93.0645C96.2793 93.0645 95.9798 93.097 95.7324 93.1621C95.485 93.2272 95.3125 93.2793 95.2148 93.3184V95.0566H93.7598C93.6686 95.0566 93.5775 95.0501 93.4863 95.0371C93.4017 95.0241 93.3236 94.998 93.252 94.959C93.1803 94.9134 93.1217 94.8548 93.0762 94.7832C93.0371 94.7051 93.0176 94.6042 93.0176 94.4805C93.0176 94.0703 93.1413 93.7188 93.3887 93.4258C93.6361 93.1263 93.9583 92.8789 94.3555 92.6836C94.7526 92.4883 95.1986 92.3451 95.6934 92.2539C96.1882 92.1628 96.6829 92.1172 97.1777 92.1172C97.7962 92.1172 98.3073 92.1921 98.7109 92.3418C99.1211 92.4915 99.4434 92.6999 99.6777 92.9668C99.9186 93.2337 100.088 93.5495 100.186 93.9141C100.283 94.2786 100.332 94.679 100.332 95.1152V100.721C100.332 100.844 100.371 100.945 100.449 101.023C100.534 101.102 100.635 101.147 100.752 101.16L101.719 101.219V102H98.7598ZM98.4961 96.6582C97.5977 96.8861 96.8848 97.1107 96.3574 97.332C95.8301 97.5534 95.4297 97.778 95.1562 98.0059C94.8893 98.2272 94.7168 98.4551 94.6387 98.6895C94.5671 98.9173 94.5312 99.1549 94.5312 99.4023C94.5312 99.6107 94.5638 99.8158 94.6289 100.018C94.7005 100.213 94.7982 100.389 94.9219 100.545C95.0521 100.701 95.2083 100.828 95.3906 100.926C95.5794 101.017 95.7943 101.062 96.0352 101.062C96.3021 101.062 96.5788 101.014 96.8652 100.916C97.1582 100.818 97.4251 100.711 97.666 100.594C97.946 100.457 98.2227 100.298 98.4961 100.115V96.6582ZM106.406 89.0605C106.406 89.2298 106.374 89.3926 106.309 89.5488C106.25 89.6986 106.165 89.8288 106.055 89.9395C105.944 90.0501 105.814 90.138 105.664 90.2031C105.521 90.2682 105.365 90.3008 105.195 90.3008C105.026 90.3008 104.863 90.2682 104.707 90.2031C104.557 90.138 104.427 90.0501 104.316 89.9395C104.206 89.8288 104.118 89.6986 104.053 89.5488C103.988 89.3926 103.955 89.2298 103.955 89.0605C103.955 88.8913 103.988 88.7318 104.053 88.582C104.118 88.4323 104.206 88.3021 104.316 88.1914C104.427 88.0807 104.557 87.9961 104.707 87.9375C104.863 87.8724 105.026 87.8398 105.195 87.8398C105.365 87.8398 105.521 87.8724 105.664 87.9375C105.814 87.9961 105.944 88.0807 106.055 88.1914C106.165 88.3021 106.25 88.4323 106.309 88.582C106.374 88.7318 106.406 88.8913 106.406 89.0605ZM102.734 102V101.219L103.711 101.16C103.835 101.147 103.936 101.102 104.014 101.023C104.092 100.945 104.131 100.844 104.131 100.721V93.582H102.754V92.8789L105.195 92.1172H105.986V100.721C105.986 100.844 106.025 100.945 106.104 101.023C106.188 101.102 106.289 101.147 106.406 101.16L107.432 101.219V102H102.734ZM115.4 99.0996C115.4 99.5879 115.312 100.027 115.137 100.418C114.961 100.809 114.71 101.141 114.385 101.414C114.059 101.681 113.659 101.886 113.184 102.029C112.708 102.173 112.174 102.244 111.582 102.244C111.276 102.244 110.977 102.225 110.684 102.186C110.397 102.153 110.13 102.107 109.883 102.049C109.642 101.997 109.427 101.941 109.238 101.883C109.049 101.824 108.906 101.775 108.809 101.736V99.0801H109.824L110.068 100.779C110.27 100.91 110.518 101.036 110.811 101.16C111.11 101.277 111.455 101.336 111.846 101.336C112.132 101.336 112.386 101.294 112.607 101.209C112.829 101.118 113.014 101.001 113.164 100.857C113.32 100.714 113.438 100.551 113.516 100.369C113.6 100.18 113.643 99.985 113.643 99.7832C113.643 99.5228 113.594 99.2982 113.496 99.1094C113.398 98.9141 113.255 98.7415 113.066 98.5918C112.884 98.4355 112.656 98.2891 112.383 98.1523C112.116 98.0091 111.81 97.8529 111.465 97.6836L111.201 97.5566C110.837 97.3809 110.514 97.2083 110.234 97.0391C109.954 96.8633 109.717 96.6777 109.521 96.4824C109.333 96.2806 109.189 96.0625 109.092 95.8281C108.994 95.5872 108.945 95.3171 108.945 95.0176C108.945 94.5749 109.023 94.1745 109.18 93.8164C109.342 93.4583 109.577 93.1556 109.883 92.9082C110.189 92.6543 110.563 92.459 111.006 92.3223C111.455 92.1855 111.969 92.1172 112.549 92.1172C112.842 92.1172 113.122 92.1335 113.389 92.166C113.656 92.1986 113.9 92.2376 114.121 92.2832C114.342 92.3288 114.538 92.3776 114.707 92.4297C114.876 92.4818 115.01 92.5306 115.107 92.5762V94.9395H114.062L113.906 93.543C113.763 93.4323 113.551 93.3281 113.271 93.2305C112.992 93.1328 112.695 93.084 112.383 93.084C111.829 93.084 111.419 93.2109 111.152 93.4648C110.892 93.7122 110.762 94.0312 110.762 94.4219C110.762 94.6497 110.798 94.8483 110.869 95.0176C110.947 95.1868 111.071 95.3464 111.24 95.4961C111.416 95.6458 111.647 95.7988 111.934 95.9551C112.22 96.1048 112.575 96.2741 112.998 96.4629C113.343 96.6191 113.662 96.7852 113.955 96.9609C114.248 97.1302 114.502 97.3223 114.717 97.5371C114.932 97.7454 115.098 97.9766 115.215 98.2305C115.339 98.4844 115.4 98.7741 115.4 99.0996ZM125.215 101.004C124.935 101.18 124.642 101.342 124.336 101.492C124.036 101.642 123.724 101.772 123.398 101.883C123.079 101.993 122.754 102.081 122.422 102.146C122.09 102.212 121.755 102.244 121.416 102.244C120.811 102.244 120.228 102.143 119.668 101.941C119.108 101.733 118.613 101.424 118.184 101.014C117.76 100.604 117.419 100.089 117.158 99.4707C116.904 98.8457 116.777 98.1165 116.777 97.2832C116.777 96.502 116.895 95.7956 117.129 95.1641C117.363 94.526 117.689 93.9824 118.105 93.5332C118.522 93.0775 119.017 92.7292 119.59 92.4883C120.163 92.2409 120.791 92.1172 121.475 92.1172C122.093 92.1172 122.637 92.2214 123.105 92.4297C123.574 92.6315 123.965 92.9147 124.277 93.2793C124.59 93.6374 124.824 94.0703 124.98 94.5781C125.137 95.0794 125.215 95.6263 125.215 96.2188V96.4824C125.215 96.5866 125.208 96.6842 125.195 96.7754H118.711C118.711 97.2832 118.763 97.791 118.867 98.2988C118.978 98.8066 119.16 99.2624 119.414 99.666C119.668 100.07 120.01 100.398 120.439 100.652C120.869 100.9 121.406 101.023 122.051 101.023C122.337 101.023 122.62 100.988 122.9 100.916C123.18 100.838 123.454 100.74 123.721 100.623C123.994 100.506 124.255 100.376 124.502 100.232C124.749 100.083 124.987 99.9329 125.215 99.7832V101.004ZM123.213 95.4375C123.213 95.1055 123.174 94.7995 123.096 94.5195C123.018 94.2331 122.897 93.9857 122.734 93.7773C122.578 93.569 122.376 93.4062 122.129 93.2891C121.888 93.1654 121.602 93.1035 121.27 93.1035C120.938 93.1035 120.628 93.1686 120.342 93.2988C120.055 93.4225 119.801 93.6048 119.58 93.8457C119.365 94.0866 119.189 94.3796 119.053 94.7246C118.923 95.0632 118.844 95.4473 118.818 95.877H123.213V95.4375ZM133.516 102V100.936C133.288 101.111 133.05 101.281 132.803 101.443C132.562 101.6 132.311 101.736 132.051 101.854C131.797 101.971 131.533 102.065 131.26 102.137C130.993 102.208 130.713 102.244 130.42 102.244C129.749 102.244 129.17 102.101 128.682 101.814C128.2 101.521 127.803 101.147 127.49 100.691C127.178 100.229 126.947 99.7148 126.797 99.1484C126.654 98.5755 126.582 98.0059 126.582 97.4395C126.582 96.7624 126.686 96.1048 126.895 95.4668C127.103 94.8223 127.419 94.2526 127.842 93.7578C128.265 93.263 128.796 92.8659 129.434 92.5664C130.072 92.2669 130.82 92.1172 131.68 92.1172C131.836 92.1172 132.005 92.127 132.188 92.1465C132.37 92.166 132.546 92.1888 132.715 92.2148C132.891 92.2344 133.047 92.2604 133.184 92.293C133.327 92.319 133.438 92.3418 133.516 92.3613V88.6992H132.002V88.0352L134.58 87.2637H135.381V100.721C135.381 100.844 135.42 100.945 135.498 101.023C135.576 101.102 135.677 101.147 135.801 101.16L136.66 101.219V102H133.516ZM133.516 93.377C133.431 93.3509 133.32 93.3216 133.184 93.2891C133.053 93.25 132.91 93.2174 132.754 93.1914C132.604 93.1589 132.445 93.1328 132.275 93.1133C132.113 93.0938 131.96 93.084 131.816 93.084C131.322 93.084 130.872 93.1816 130.469 93.377C130.065 93.5658 129.72 93.8359 129.434 94.1875C129.154 94.5326 128.936 94.9525 128.779 95.4473C128.63 95.9421 128.555 96.4922 128.555 97.0977C128.555 97.6445 128.62 98.1491 128.75 98.6113C128.88 99.0671 129.069 99.4642 129.316 99.8027C129.564 100.141 129.867 100.405 130.225 100.594C130.583 100.783 130.993 100.877 131.455 100.877C131.657 100.877 131.852 100.857 132.041 100.818C132.23 100.773 132.412 100.717 132.588 100.652C132.764 100.581 132.93 100.506 133.086 100.428C133.242 100.343 133.385 100.262 133.516 100.184V93.377Z" fill="black"/>
<defs>
<clipPath id="clip0_8_41">
<rect width="38" height="38" fill="white" transform="translate(18)"/>
</clipPath>
<clipPath id="clip1_8_41">
<rect width="65" height="59" fill="white" transform="translate(37 19)"/>
</clipPath>
</defs>
</svg>
