<svg width="102" height="108" viewBox="0 0 102 108" fill="none" xmlns="http://www.w3.org/2000/svg">
<g clip-path="url(#clip0_8_42)">
<mask id="mask0_8_42" style="mask-type:luminance" maskUnits="userSpaceOnUse" x="-120" y="-2627" width="1440" height="5730">
<path d="M-120 -2627H1320V3103H-120V-2627Z" fill="white"/>
</mask>
<g mask="url(#mask0_8_42)">
<path d="M19 38C8.5 38 0 29.5 0 19C0 8.5 8.5 0 19 0C29.5 0 38 8.5 38 19C38 29.5 29.5 38 19 38Z" fill="#EBF6FF"/>
</g>
</g>
<g clip-path="url(#clip1_8_42)">
<mask id="mask1_8_42" style="mask-type:luminance" maskUnits="userSpaceOnUse" x="-111" y="-2619" width="1440" height="5730">
<path d="M-111 -2619H1329V3111H-111V-2619Z" fill="white"/>
</mask>
<g mask="url(#mask1_8_42)">
<path d="M67.5 77.3001C62.2 77.3001 57.2 74.7001 54.1 70.4001C53.8 69.9001 53.9 69.3001 54.4 69.0001C54.8 68.7001 55.4 68.8001 55.7 69.3001C58.4 73.1001 62.8 75.4001 67.5 75.4001C75.5 75.4001 81.9 68.9001 81.9 61.0001C81.9 53.6001 76.4 47.4001 69 46.6001C68.5 46.6001 68.1 46.1001 68.1 45.6001C68.2 45.1001 68.7 44.7001 69.2 44.7001C77.5 45.6001 83.8 52.6001 83.8 61.0001C83.8 70.0001 76.5 77.3001 67.5 77.3001Z" fill="#0063D3"/>
<path d="M26.5 70.8H22C20.5 70.8 19.2 69.5 19.2 67.9V31.6C19.2 31.1 19.6 30.6 20.1 30.6H69.1C69.6 30.6 70 31.1 70 31.6V49.8C70 50.4 69.6 50.8 69.1 50.8C68.6 50.8 68.1 50.4 68.1 49.8V32.5H21.1V67.9C21.1 68.4 21.5 68.9 22 68.9H26.5C27 68.9 27.4 69.3 27.4 69.8C27.4 70.3 27 70.8 26.5 70.8Z" fill="#0063D3"/>
<path d="M60.5 70.8H30.9C30.4 70.8 30 70.3 30 69.8C30 69.3 30.4 68.9 30.9 68.9H60.5C61 68.9 61.5 69.3 61.5 69.8C61.5 70.3 61 70.8 60.5 70.8Z" fill="#0063D3"/>
<path d="M59.1 54.4001H57.1C56.4 54.4001 55.8 53.8001 55.8 53.1001V47.8001C55.8 47.1001 56.4 46.5001 57.1 46.5001H62.4C63.2 46.5001 63.8 47.1001 63.8 47.8001V50.7001C63.8 51.3001 63.3 51.7001 62.8 51.7001C62.3 51.7001 61.9 51.3001 61.9 50.7001V48.4001H57.7V52.6001H59.1C59.6 52.6001 60 53.0001 60 53.5001C60 54.0001 59.6 54.4001 59.1 54.4001Z" fill="#0063D3"/>
<path fill-rule="evenodd" clip-rule="evenodd" d="M62.4 44H57.1C56.4 44 55.8 43.4 55.8 42.7V37.4C55.8 36.7 56.4 36.1 57.1 36.1H62.4C63.2 36.1 63.8 36.7 63.8 37.4V42.7C63.8 43.4 63.2 44 62.4 44ZM57.7 42.1H61.9V38H57.7V42.1Z" fill="#0063D3"/>
<path d="M67.5 73.2001C61.7 73.2001 56.7 69.1001 55.5 63.4001C55.4 62.9001 55.8 62.4 56.3 62.3C56.8 62.2 57.3 62.5 57.4 63C58.3 67.8 62.6 71.3 67.5 71.3C73.2 71.3 77.8 66.7 77.8 61C77.8 55.3 73.2 50.7001 67.5 50.7001C62.6 50.7001 58.3 54.2 57.4 59C57.3 59.5 56.8 59.8001 56.3 59.7001C55.8 59.6001 55.4 59.1 55.5 58.6C56.6 52.9 61.7 48.8 67.5 48.8C74.2 48.8 79.7 54.2 79.7 61C79.7 67.7 74.2 73.2001 67.5 73.2001Z" fill="#0063D3"/>
<path d="M72.7 61.9001H67.5C67 61.9001 66.5 61.5001 66.5 61.0001V54.1001C66.5 53.6001 67 53.2001 67.5 53.2001C68 53.2001 68.4 53.6001 68.4 54.1001V60.0001H72.7C73.2 60.0001 73.7 60.5001 73.7 61.0001C73.7 61.5001 73.2 61.9001 72.7 61.9001Z" fill="#0063D3"/>
<path d="M69.1 32.5H20.1C19.6 32.5 19.2 32.1 19.2 31.6V24.4C19.2 22.9 20.5 21.6 22 21.6H31.2C31.7 21.6 32.1 22 32.1 22.5C32.1 23 31.7 23.5 31.2 23.5H22C21.5 23.5 21.1 23.9 21.1 24.4V30.6H68.1V24.4C68.1 23.9 67.7 23.5 67.2 23.5H35.6C35.1 23.5 34.6 23 34.6 22.5C34.6 22 35.1 21.6 35.6 21.6H67.2C68.8 21.6 70 22.9 70 24.4V31.6C70 32.1 69.6 32.5 69.1 32.5Z" fill="#0063D3"/>
<path d="M26.4 26.5C25.9 26.5 25.4 26.1 25.4 25.5V20.3C25.4 19.7 25.9 19.3 26.4 19.3C26.9 19.3 27.3 19.7 27.3 20.3V25.5C27.3 26.1 26.9 26.5 26.4 26.5Z" fill="#0063D3"/>
<path d="M62.8 26.5C62.3 26.5 61.9 26.1 61.9 25.5V20.3C61.9 19.7 62.3 19.3 62.8 19.3C63.3 19.3 63.8 19.7 63.8 20.3V25.5C63.8 26.1 63.3 26.5 62.8 26.5Z" fill="#0063D3"/>
<path d="M29.1 64.9C28.8 64.9 28.6 64.7 28.4 64.5L25.7 61.2C25.3 60.8 25.4 60.2 25.8 59.9C26.2 59.5 26.8 59.6 27.1 60L29 62.3L31.8 57.6C32 57.1 32.6 57 33.1 57.2C33.5 57.5 33.7 58.1 33.4 58.5L29.9 64.4C29.8 64.7 29.5 64.8 29.2 64.9C29.2 64.9 29.1667 64.9 29.1 64.9Z" fill="#0063D3"/>
<path fill-rule="evenodd" clip-rule="evenodd" d="M32.1 44H26.8C26 44 25.4 43.4 25.4 42.7V37.4C25.4 36.7 26 36.1 26.8 36.1H32.1C32.8 36.1 33.4 36.7 33.4 37.4V42.7C33.4 43.4 32.8 44 32.1 44ZM27.3 42.1H31.5V38H27.3V42.1Z" fill="#0063D3"/>
<path fill-rule="evenodd" clip-rule="evenodd" d="M42.2 44H36.9C36.2 44 35.6 43.4 35.6 42.7V37.4C35.6 36.7 36.2 36.1 36.9 36.1H42.2C42.9 36.1 43.5 36.7 43.5 37.4V42.7C43.5 43.4 42.9 44 42.2 44ZM37.5 42.1H41.6V38H37.5V42.1Z" fill="#0063D3"/>
<path fill-rule="evenodd" clip-rule="evenodd" d="M52.3 44H47C46.3 44 45.7 43.4 45.7 42.7V37.4C45.7 36.7 46.3 36.1 47 36.1H52.3C53 36.1 53.6 36.7 53.6 37.4V42.7C53.6 43.4 53 44 52.3 44ZM47.6 42.1H51.7V38H47.6V42.1Z" fill="#0063D3"/>
<path fill-rule="evenodd" clip-rule="evenodd" d="M32.1 54.4001H26.8C26 54.4001 25.4 53.8001 25.4 53.1001V47.8001C25.4 47.1001 26 46.5001 26.8 46.5001H32.1C32.8 46.5001 33.4 47.1001 33.4 47.8001V53.1001C33.4 53.8001 32.8 54.4001 32.1 54.4001ZM27.3 52.6001H31.5V48.4001H27.3V52.6001Z" fill="#0063D3"/>
<path fill-rule="evenodd" clip-rule="evenodd" d="M42.2 54.4001H36.9C36.2 54.4001 35.6 53.8001 35.6 53.1001V47.8001C35.6 47.1001 36.2 46.5001 36.9 46.5001H42.2C42.9 46.5001 43.5 47.1001 43.5 47.8001V53.1001C43.5 53.8001 42.9 54.4001 42.2 54.4001ZM37.5 52.6001H41.6V48.4001H37.5V52.6001Z" fill="#0063D3"/>
<path fill-rule="evenodd" clip-rule="evenodd" d="M52.3 54.4001H47C46.3 54.4001 45.7 53.8001 45.7 53.1001V47.8001C45.7 47.1001 46.3 46.5001 47 46.5001H52.3C53 46.5001 53.6 47.1001 53.6 47.8001V53.1001C53.6 53.8001 53 54.4001 52.3 54.4001ZM47.6 52.6001H51.7V48.4001H47.6V52.6001Z" fill="#0063D3"/>
<path fill-rule="evenodd" clip-rule="evenodd" d="M32.1 44H26.8C26 44 25.4 43.4 25.4 42.7V37.4C25.4 36.7 26 36.1 26.8 36.1H32.1C32.8 36.1 33.4 36.7 33.4 37.4V42.7C33.4 43.4 32.8 44 32.1 44ZM27.3 42.1H31.5V38H27.3V42.1Z" fill="#0063D3"/>
<path fill-rule="evenodd" clip-rule="evenodd" d="M42.2 44H36.9C36.2 44 35.6 43.4 35.6 42.7V37.4C35.6 36.7 36.2 36.1 36.9 36.1H42.2C42.9 36.1 43.5 36.7 43.5 37.4V42.7C43.5 43.4 42.9 44 42.2 44ZM37.5 42.1H41.6V38H37.5V42.1Z" fill="#0063D3"/>
<path fill-rule="evenodd" clip-rule="evenodd" d="M52.3 44H47C46.3 44 45.7 43.4 45.7 42.7V37.4C45.7 36.7 46.3 36.1 47 36.1H52.3C53 36.1 53.6 36.7 53.6 37.4V42.7C53.6 43.4 53 44 52.3 44ZM47.6 42.1H51.7V38H47.6V42.1Z" fill="#0063D3"/>
<path fill-rule="evenodd" clip-rule="evenodd" d="M32.1 54.4001H26.8C26 54.4001 25.4 53.8001 25.4 53.1001V47.8001C25.4 47.1001 26 46.5001 26.8 46.5001H32.1C32.8 46.5001 33.4 47.1001 33.4 47.8001V53.1001C33.4 53.8001 32.8 54.4001 32.1 54.4001ZM27.3 52.6001H31.5V48.4001H27.3V52.6001Z" fill="#0063D3"/>
<path fill-rule="evenodd" clip-rule="evenodd" d="M42.2 54.4001H36.9C36.2 54.4001 35.6 53.8001 35.6 53.1001V47.8001C35.6 47.1001 36.2 46.5001 36.9 46.5001H42.2C42.9 46.5001 43.5 47.1001 43.5 47.8001V53.1001C43.5 53.8001 42.9 54.4001 42.2 54.4001ZM37.5 52.6001H41.6V48.4001H37.5V52.6001Z" fill="#0063D3"/>
<path fill-rule="evenodd" clip-rule="evenodd" d="M52.3 54.4001H47C46.3 54.4001 45.7 53.8001 45.7 53.1001V47.8001C45.7 47.1001 46.3 46.5001 47 46.5001H52.3C53 46.5001 53.6 47.1001 53.6 47.8001V53.1001C53.6 53.8001 53 54.4001 52.3 54.4001ZM47.6 52.6001H51.7V48.4001H47.6V52.6001Z" fill="#0063D3"/>
<path fill-rule="evenodd" clip-rule="evenodd" d="M42.2 64.9H36.9C36.2 64.9 35.6 64.3 35.6 63.5V58.3C35.6 57.5 36.2 56.9 36.9 56.9H42.2C42.9 56.9 43.5 57.5 43.5 58.3V63.5C43.5 64.3 42.9 64.9 42.2 64.9ZM37.5 63H41.6V58.8H37.5V63Z" fill="#0063D3"/>
<path fill-rule="evenodd" clip-rule="evenodd" d="M52.3 64.9H47C46.3 64.9 45.7 64.3 45.7 63.5V58.3C45.7 57.5 46.3 56.9 47 56.9H52.3C53 56.9 53.6 57.5 53.6 58.3V63.5C53.6 64.3 53 64.9 52.3 64.9ZM47.6 63H51.7V58.8H47.6V63Z" fill="#0063D3"/>
</g>
</g>
<path d="M0.644531 102V101.141L1.67969 101.062C1.82292 101.049 1.93034 100.997 2.00195 100.906C2.08008 100.815 2.11914 100.721 2.11914 100.623V89.959C2.11914 89.8613 2.08008 89.7669 2.00195 89.6758C1.93034 89.5846 1.82292 89.5326 1.67969 89.5195L0.644531 89.4414V88.582H10.3613V91.5605H9.16016L8.85742 89.9199C8.8444 89.8223 8.80208 89.7344 8.73047 89.6562C8.66536 89.5781 8.58724 89.5391 8.49609 89.5391H4.16016V94.5195H7.1582C7.24935 94.5195 7.33073 94.4805 7.40234 94.4023C7.48047 94.3242 7.51953 94.2493 7.51953 94.1777L7.72461 92.8008H8.74023V97.2637H7.72461L7.51953 95.877C7.51953 95.8053 7.48047 95.7272 7.40234 95.6426C7.32422 95.5579 7.24284 95.5156 7.1582 95.5156H4.16016V101.023H9.21875C9.30339 101.023 9.38151 100.978 9.45312 100.887C9.52474 100.796 9.56706 100.714 9.58008 100.643L9.94141 98.6602H11.0156V102H0.644531ZM17.3633 102V101.219L18.0371 101.141C18.1087 101.134 18.1608 101.108 18.1934 101.062C18.2324 101.01 18.252 100.955 18.252 100.896C18.252 100.857 18.2422 100.818 18.2227 100.779L16.5039 98.2207L14.541 100.779C14.5085 100.812 14.4922 100.864 14.4922 100.936C14.4922 100.988 14.5052 101.033 14.5312 101.072C14.5573 101.111 14.5996 101.134 14.6582 101.141L15.6641 101.219V102H11.8555V101.219L12.998 101.062L15.8594 97.3418L13.1445 93.3184L11.9629 93.1426V92.3613H16.3574V93.1426L15.6641 93.2402C15.5924 93.2533 15.5339 93.2858 15.4883 93.3379C15.4492 93.3835 15.4297 93.4355 15.4297 93.4941C15.4297 93.5397 15.4395 93.5755 15.459 93.6016L17.041 95.8379L18.7793 93.6016C18.8118 93.556 18.8281 93.5104 18.8281 93.4648C18.8281 93.4128 18.8118 93.3639 18.7793 93.3184C18.7467 93.2728 18.7012 93.2467 18.6426 93.2402L17.7832 93.1426V92.3613H21.377V93.1426L20.3027 93.3184L17.6172 96.7363L20.5762 101.062L21.6602 101.219V102H17.3633ZM32.3535 97.0391C32.3535 97.8268 32.2363 98.543 32.002 99.1875C31.7741 99.8255 31.4421 100.372 31.0059 100.828C30.5762 101.277 30.0456 101.626 29.4141 101.873C28.7891 102.12 28.0827 102.244 27.2949 102.244C27.1126 102.244 26.9173 102.234 26.709 102.215C26.5007 102.202 26.3086 102.182 26.1328 102.156C25.9245 102.13 25.7194 102.098 25.5176 102.059V105.037C25.5176 105.161 25.5599 105.258 25.6445 105.33C25.7292 105.402 25.8333 105.444 25.957 105.457L27.1387 105.584V106.355H22.2754V105.584L23.2324 105.457C23.3561 105.444 23.457 105.402 23.5352 105.33C23.6133 105.258 23.6523 105.161 23.6523 105.037V93.7773H22.2754V93.123L24.7363 92.3613H25.5176V93.3574C25.804 93.1296 26.11 92.9245 26.4355 92.7422C26.7155 92.5859 27.0378 92.4427 27.4023 92.3125C27.7669 92.1823 28.1445 92.1172 28.5352 92.1172C29.0495 92.1172 29.5378 92.2344 30 92.4688C30.4622 92.7031 30.8659 93.0352 31.2109 93.4648C31.5625 93.8945 31.8392 94.4121 32.041 95.0176C32.2493 95.623 32.3535 96.2969 32.3535 97.0391ZM30.3516 97.3223C30.3516 96.8079 30.2897 96.3229 30.166 95.8672C30.0488 95.4049 29.873 95.0013 29.6387 94.6562C29.4043 94.3047 29.1113 94.028 28.7598 93.8262C28.4147 93.6243 28.0143 93.5234 27.5586 93.5234C27.3047 93.5234 27.054 93.556 26.8066 93.6211C26.5658 93.6862 26.3509 93.7546 26.1621 93.8262C25.9408 93.9108 25.7259 94.0085 25.5176 94.1191V101.004C25.6738 101.062 25.8398 101.115 26.0156 101.16C26.1654 101.199 26.3379 101.235 26.5332 101.268C26.7285 101.3 26.9303 101.316 27.1387 101.316C27.6855 101.316 28.1608 101.206 28.5645 100.984C28.9681 100.763 29.3001 100.47 29.5605 100.105C29.8275 99.7344 30.026 99.3079 30.1562 98.8262C30.2865 98.3444 30.3516 97.8431 30.3516 97.3223ZM42.168 101.004C41.888 101.18 41.5951 101.342 41.2891 101.492C40.9896 101.642 40.6771 101.772 40.3516 101.883C40.0326 101.993 39.707 102.081 39.375 102.146C39.043 102.212 38.7077 102.244 38.3691 102.244C37.7637 102.244 37.181 102.143 36.6211 101.941C36.0612 101.733 35.5664 101.424 35.1367 101.014C34.7135 100.604 34.3717 100.089 34.1113 99.4707C33.8574 98.8457 33.7305 98.1165 33.7305 97.2832C33.7305 96.502 33.8477 95.7956 34.082 95.1641C34.3164 94.526 34.6419 93.9824 35.0586 93.5332C35.4753 93.0775 35.9701 92.7292 36.543 92.4883C37.1159 92.2409 37.7441 92.1172 38.4277 92.1172C39.0462 92.1172 39.5898 92.2214 40.0586 92.4297C40.5273 92.6315 40.918 92.9147 41.2305 93.2793C41.543 93.6374 41.7773 94.0703 41.9336 94.5781C42.0898 95.0794 42.168 95.6263 42.168 96.2188V96.4824C42.168 96.5866 42.1615 96.6842 42.1484 96.7754H35.6641C35.6641 97.2832 35.7161 97.791 35.8203 98.2988C35.931 98.8066 36.1133 99.2624 36.3672 99.666C36.6211 100.07 36.9629 100.398 37.3926 100.652C37.8223 100.9 38.3594 101.023 39.0039 101.023C39.2904 101.023 39.5736 100.988 39.8535 100.916C40.1335 100.838 40.4069 100.74 40.6738 100.623C40.9473 100.506 41.2077 100.376 41.4551 100.232C41.7025 100.083 41.9401 99.9329 42.168 99.7832V101.004ZM40.166 95.4375C40.166 95.1055 40.127 94.7995 40.0488 94.5195C39.9707 94.2331 39.8503 93.9857 39.6875 93.7773C39.5312 93.569 39.3294 93.4062 39.082 93.2891C38.8411 93.1654 38.5547 93.1035 38.2227 93.1035C37.8906 93.1035 37.5814 93.1686 37.2949 93.2988C37.0085 93.4225 36.7546 93.6048 36.5332 93.8457C36.3184 94.0866 36.1426 94.3796 36.0059 94.7246C35.8757 95.0632 35.7975 95.4473 35.7715 95.877H40.166V95.4375ZM49.6875 94.4023C49.5573 94.2526 49.4076 94.1257 49.2383 94.0215C49.069 93.9108 48.8607 93.8555 48.6133 93.8555C48.2878 93.8555 47.959 93.9661 47.627 94.1875C47.2949 94.4023 46.9564 94.7051 46.6113 95.0957V100.721C46.6113 100.844 46.6504 100.949 46.7285 101.033C46.8066 101.111 46.9076 101.154 47.0312 101.16L48.3496 101.219V102H43.3496V101.238L44.3359 101.16C44.4531 101.147 44.5508 101.102 44.6289 101.023C44.7135 100.945 44.7559 100.844 44.7559 100.721V93.7773H43.3105V93.123L45.791 92.3613H46.6113V94.1387C46.7546 93.9824 46.9271 93.7904 47.1289 93.5625C47.3372 93.3281 47.5586 93.1035 47.793 92.8887C48.0273 92.6738 48.2682 92.4915 48.5156 92.3418C48.7695 92.1921 49.0137 92.1172 49.248 92.1172C49.3522 92.1172 49.4629 92.127 49.5801 92.1465C49.6973 92.166 49.8112 92.1921 49.9219 92.2246C50.0326 92.2507 50.1335 92.2832 50.2246 92.3223C50.3223 92.3548 50.4036 92.3874 50.4688 92.4199V94.4023H49.6875ZM57.3438 101.58C57.0964 101.704 56.8262 101.814 56.5332 101.912C56.2858 101.997 55.9993 102.072 55.6738 102.137C55.3483 102.208 55.0065 102.244 54.6484 102.244C53.8932 102.244 53.3464 102.068 53.0078 101.717C52.6693 101.365 52.5 100.792 52.5 99.998V93.3574H51.2207V92.7031L52.5879 92.0586L53.4863 89.9395H54.3652V92.3613H57.1875V93.3574H54.3652V98.9434C54.3652 99.3405 54.3978 99.679 54.4629 99.959C54.5345 100.232 54.6354 100.457 54.7656 100.633C54.9023 100.802 55.0684 100.926 55.2637 101.004C55.4655 101.082 55.6999 101.121 55.9668 101.121C56.1621 101.121 56.3411 101.105 56.5039 101.072C56.6732 101.04 56.8197 101.001 56.9434 100.955C57.0866 100.903 57.2201 100.844 57.3438 100.779V101.58ZM78.2422 101.541C78.2161 101.554 78.0892 101.603 77.8613 101.688C77.6335 101.766 77.3372 101.854 76.9727 101.951C76.6081 102.042 76.1882 102.127 75.7129 102.205C75.2441 102.283 74.7559 102.322 74.248 102.322C73.4993 102.322 72.806 102.231 72.168 102.049C71.5365 101.873 70.9603 101.626 70.4395 101.307C69.9251 100.988 69.4694 100.607 69.0723 100.164C68.6816 99.7214 68.3496 99.2396 68.0762 98.7188C67.8092 98.1979 67.6074 97.6445 67.4707 97.0586C67.334 96.4727 67.2656 95.8737 67.2656 95.2617C67.2656 94.2266 67.4349 93.2793 67.7734 92.4199C68.112 91.5605 68.5872 90.8249 69.1992 90.2129C69.8112 89.5944 70.5469 89.1159 71.4062 88.7773C72.2656 88.4323 73.2194 88.2598 74.2676 88.2598C74.5931 88.2598 74.9056 88.2793 75.2051 88.3184C75.5111 88.3509 75.8203 88.3997 76.1328 88.4648C76.4453 88.5299 76.7741 88.6113 77.1191 88.709C77.4642 88.8066 77.8385 88.9173 78.2422 89.041V92.1758H77.041L76.748 90.3594C76.722 90.2487 76.6732 90.1543 76.6016 90.0762C76.5299 89.9915 76.4648 89.9329 76.4062 89.9004L76.3281 89.8613C76.2435 89.8223 76.1361 89.7767 76.0059 89.7246C75.8757 89.666 75.7259 89.6139 75.5566 89.5684C75.3939 89.5163 75.2116 89.474 75.0098 89.4414C74.8079 89.4023 74.5931 89.3828 74.3652 89.3828C73.6816 89.3828 73.0469 89.5098 72.4609 89.7637C71.875 90.0176 71.3672 90.3919 70.9375 90.8867C70.5078 91.3815 70.1693 91.9967 69.9219 92.7324C69.681 93.4616 69.5605 94.3047 69.5605 95.2617C69.5605 96.1927 69.6745 97.026 69.9023 97.7617C70.1367 98.4974 70.472 99.1224 70.9082 99.6367C71.3444 100.151 71.875 100.545 72.5 100.818C73.125 101.085 73.8346 101.219 74.6289 101.219C74.8633 101.219 75.0749 101.202 75.2637 101.17C75.459 101.137 75.6283 101.102 75.7715 101.062C75.9147 101.017 76.0254 100.978 76.1035 100.945C76.1816 100.906 76.2272 100.883 76.2402 100.877C76.3444 100.838 76.429 100.783 76.4941 100.711C76.5592 100.639 76.6016 100.561 76.6211 100.477L77.0801 98.2988H78.2422V101.541ZM85.9082 102L85.6445 100.818C85.293 101.085 84.9316 101.323 84.5605 101.531C84.3978 101.622 84.2253 101.71 84.043 101.795C83.8607 101.88 83.6719 101.954 83.4766 102.02C83.2878 102.091 83.0924 102.146 82.8906 102.186C82.6953 102.225 82.5 102.244 82.3047 102.244C81.9401 102.244 81.5983 102.182 81.2793 102.059C80.9668 101.935 80.6934 101.756 80.459 101.521C80.2246 101.287 80.0391 101.004 79.9023 100.672C79.7721 100.34 79.707 99.9622 79.707 99.5391C79.707 99.2917 79.7298 99.0573 79.7754 98.8359C79.8275 98.6146 79.9284 98.3997 80.0781 98.1914C80.2279 97.9831 80.4362 97.7845 80.7031 97.5957C80.9766 97.4004 81.3314 97.2083 81.7676 97.0195C82.2103 96.8307 82.7474 96.6452 83.3789 96.4629C84.0169 96.2741 84.7721 96.0853 85.6445 95.8965V95.0371C85.6445 94.3665 85.4948 93.8717 85.1953 93.5527C84.8958 93.2272 84.4238 93.0645 83.7793 93.0645C83.4277 93.0645 83.1283 93.097 82.8809 93.1621C82.6335 93.2272 82.4609 93.2793 82.3633 93.3184V95.0566H80.9082C80.8171 95.0566 80.7259 95.0501 80.6348 95.0371C80.5501 95.0241 80.472 94.998 80.4004 94.959C80.3288 94.9134 80.2702 94.8548 80.2246 94.7832C80.1855 94.7051 80.166 94.6042 80.166 94.4805C80.166 94.0703 80.2897 93.7188 80.5371 93.4258C80.7845 93.1263 81.1068 92.8789 81.5039 92.6836C81.901 92.4883 82.347 92.3451 82.8418 92.2539C83.3366 92.1628 83.8314 92.1172 84.3262 92.1172C84.9447 92.1172 85.4557 92.1921 85.8594 92.3418C86.2695 92.4915 86.5918 92.6999 86.8262 92.9668C87.0671 93.2337 87.2363 93.5495 87.334 93.9141C87.4316 94.2786 87.4805 94.679 87.4805 95.1152V100.721C87.4805 100.844 87.5195 100.945 87.5977 101.023C87.6823 101.102 87.7832 101.147 87.9004 101.16L88.8672 101.219V102H85.9082ZM85.6445 96.6582C84.7461 96.8861 84.0332 97.1107 83.5059 97.332C82.9785 97.5534 82.5781 97.778 82.3047 98.0059C82.0378 98.2272 81.8652 98.4551 81.7871 98.6895C81.7155 98.9173 81.6797 99.1549 81.6797 99.4023C81.6797 99.6107 81.7122 99.8158 81.7773 100.018C81.849 100.213 81.9466 100.389 82.0703 100.545C82.2005 100.701 82.3568 100.828 82.5391 100.926C82.7279 101.017 82.9427 101.062 83.1836 101.062C83.4505 101.062 83.7272 101.014 84.0137 100.916C84.3066 100.818 84.5736 100.711 84.8145 100.594C85.0944 100.457 85.3711 100.298 85.6445 100.115V96.6582ZM89.7363 102V101.219L90.8008 101.16C90.8919 101.16 90.9863 101.115 91.084 101.023C91.1882 100.926 91.2402 100.831 91.2402 100.74V88.6992H89.7168V88.0352L92.2754 87.2637H93.0957V100.74C93.0957 100.831 93.1413 100.926 93.2324 101.023C93.3301 101.115 93.4245 101.16 93.5156 101.16L94.5996 101.219V102H89.7363ZM95.6738 102V101.219L96.7383 101.16C96.8294 101.16 96.9238 101.115 97.0215 101.023C97.1257 100.926 97.1777 100.831 97.1777 100.74V88.6992H95.6543V88.0352L98.2129 87.2637H99.0332V100.74C99.0332 100.831 99.0788 100.926 99.1699 101.023C99.2676 101.115 99.362 101.16 99.4531 101.16L100.537 101.219V102H95.6738Z" fill="black"/>
<defs>
<clipPath id="clip0_8_42">
<rect width="38" height="38" fill="white"/>
</clipPath>
<clipPath id="clip1_8_42">
<rect width="65" height="59" fill="white" transform="translate(19 19)"/>
</clipPath>
</defs>
</svg>
