<?xml version="1.0" encoding="UTF-8"?>
<svg id="Layer_1" data-name="Layer 1" xmlns="http://www.w3.org/2000/svg" version="1.1" viewBox="0 0 2250 2250">
  <defs>
    <style>
      .cls-1 {
        fill: #000;
      }

      .cls-1, .cls-2, .cls-3 {
        stroke-width: 0px;
      }

      .cls-2 {
        fill: #0999e0;
      }

      .cls-3 {
        fill: #fff;
      }
    </style>
  </defs>
  <path class="cls-2" d="M1542.68,1572.66c-112.1,154.4-260.16,265.45-417.73,316.21-158.63-49.7-305.63-161.8-417.73-315.15-30.67-42.3-58.17-86.72-81.43-133.25h-80.37c112.1,240.06,324.67,450.52,579.54,522.43,190.36-53.93,356.4-185.07,475.9-347.93,40.19-54.99,75.09-114.22,103.64-175.55h-79.32c-24.32,46.53-51.82,90.95-82.49,133.25ZM1458.08,557.41c-162.86-3.17-289.77-87.78-333.13-117.39-43.36,29.61-170.27,114.22-333.13,117.39-178.73,4.23-290.83-39.13-333.13-67.68v473.78h71.91v-365.91c77.2,22.21,157.58,32.79,237.95,31.73h25.38c111.04-3.17,224.2-39.13,331.01-104.7,106.81,65.57,219.97,101.52,331.01,103.64h25.38c80.37,1.06,160.75-9.52,237.95-31.73v365.91h71.91v-472.73c-42.3,28.55-154.4,71.91-333.13,67.68h0Z"/>
  <circle class="cls-2" cx="1125" cy="439.29" r="67.39"/>
  <circle class="cls-3" cx="1125" cy="439.29" r="49.29"/>
  <circle class="cls-1" cx="1125" cy="439.29" r="45.74"/>
  <circle class="cls-3" cx="1151.96" cy="412.86" r="27.09"/>
  <g>
    <path class="cls-1" d="M587.36,1314.34v-23.33c0-.3.02-1.8.05-4.48.04-2.68.05-4.48.05-5.39h-.16l-11.05,33.2h-5.3l-11.07-33.14h-.16c0,1.33.02,3.22.05,5.67.04,2.46.05,3.83.05,4.14v23.33h-5.16v-39.51h7.63l11.24,33.41h.16l11.18-33.41h7.66v39.51h-5.19Z"/>
    <path class="cls-1" d="M617.82,1302.83l-4.14,11.5h-5.48l14.86-39.51h6.05l14.3,39.51h-5.83l-3.9-11.5h-15.86ZM631.74,1298.1l-5.83-17.39h-.11l-6.34,17.39h12.28Z"/>
    <path class="cls-1" d="M664.48,1314.34h-5.27v-39.51h5.27v19.14l19.17-19.14h7.39l-16.48,15.94,16.91,23.57h-6.88l-13.82-19.81-6.29,5.94v13.87Z"/>
    <path class="cls-1" d="M712.07,1314.34h-5.35v-39.51h5.35v39.51Z"/>
    <path class="cls-1" d="M757.58,1274.83h5.16v39.51h-5.94l-20.16-31.93h-.11v31.93h-5.11v-39.51h6.26l19.78,31.91h.11v-31.91Z"/>
    <path class="cls-1" d="M798.9,1293.21h17.36v21.13h-3.47l-1.29-5.11c-1.68,2.15-3.67,3.71-5.94,4.69-2.28.98-4.64,1.46-7.1,1.46-3.96,0-7.27-.86-9.93-2.59-2.66-1.73-4.73-4.12-6.2-7.16-1.47-3.05-2.2-6.85-2.2-11.4,0-5.68,1.69-10.51,5.07-14.49,3.38-3.98,7.92-5.97,13.64-5.97,4.26,0,7.99,1.19,11.18,3.57,3.19,2.38,5.04,5.54,5.56,9.46h-5.16c-.63-2.6-1.95-4.63-3.98-6.1-2.03-1.47-4.65-2.2-7.88-2.2-3.89,0-7.02,1.47-9.38,4.4s-3.55,6.81-3.55,11.63c0,5.61,1.17,9.73,3.52,12.35,2.35,2.63,5.55,3.94,9.62,3.94,2.65,0,4.9-.52,6.73-1.57s3.25-2.47,4.23-4.27c.99-1.8,1.48-4.2,1.48-7.19h-12.34v-4.57Z"/>
    <path class="cls-1" d="M882.37,1286.38c-.11-2.51-1.04-4.48-2.81-5.9-1.77-1.42-4.09-2.14-6.98-2.14s-5.13.6-6.69,1.79c-1.56,1.19-2.34,2.91-2.34,5.15,0,1.2.34,2.23,1.02,3.09.68.86,1.9,1.5,3.66,1.91l11.29,2.58c3.05.66,5.3,1.92,6.77,3.78,1.47,1.85,2.2,4.12,2.2,6.79,0,3.91-1.43,6.88-4.3,8.91s-6.59,3.05-11.18,3.05c-3.49,0-6.25-.45-8.27-1.34-2.02-.9-3.8-2.32-5.36-4.27s-2.34-4.69-2.34-8.2h5c0,2.94.98,5.21,2.93,6.83,1.95,1.61,4.61,2.42,7.98,2.42s5.8-.58,7.62-1.73c1.82-1.16,2.73-2.8,2.73-4.93,0-1.94-.54-3.38-1.63-4.34-1.08-.96-3.2-1.81-6.36-2.54l-8.52-1.99c-2.83-.65-4.95-1.77-6.34-3.37-1.4-1.6-2.1-3.58-2.1-5.93,0-3.55,1.2-6.47,3.59-8.76,2.39-2.29,5.73-3.44,10.01-3.44,4.84,0,8.57,1.01,11.2,3.02,2.62,2.02,4.04,5.21,4.23,9.58h-5.03Z"/>
    <path class="cls-1" d="M935.22,1314.34h-29.16v-39.51h28.79v4.73h-23.44v12.1h21.61v4.73h-21.61v13.22h23.82v4.73Z"/>
    <path class="cls-1" d="M979.82,1286.71c-.59-2.69-1.83-4.73-3.72-6.11s-4.34-2.08-7.35-2.08c-3.89,0-7.02,1.41-9.38,4.23-2.37,2.82-3.55,6.63-3.55,11.44,0,5.56,1.12,9.69,3.36,12.4,2.24,2.71,5.48,4.07,9.73,4.07,2.8,0,5.2-.93,7.22-2.78,2.02-1.85,3.37-4.55,4.07-8.08h5.19c-.7,5.07-2.63,8.94-5.78,11.6-3.15,2.66-6.99,3.99-11.5,3.99-5.39,0-9.71-1.85-12.94-5.56-3.23-3.71-4.85-8.86-4.85-15.46s1.69-11.38,5.07-15.07c3.38-3.68,7.84-5.52,13.37-5.52,4.59,0,8.31,1.18,11.16,3.55,2.85,2.37,4.54,5.49,5.08,9.38h-5.16Z"/>
    <path class="cls-1" d="M1033.5,1274.83v25.64c0,4.37-1.38,7.95-4.15,10.74-2.77,2.79-6.69,4.18-11.76,4.18-4.73,0-8.44-1.29-11.14-3.86-2.7-2.57-4.04-6.02-4.04-10.33v-26.37h5.27v24.86c0,3.64.91,6.38,2.73,8.21,1.82,1.84,4.25,2.75,7.3,2.75,3.26,0,5.81-.92,7.65-2.75s2.75-4.54,2.75-8.1v-24.97h5.4Z"/>
    <path class="cls-1" d="M1057.94,1314.34h-5.35v-39.51h18.28c4.25,0,7.46.9,9.65,2.71s3.28,4.44,3.28,7.9c0,2.28-.44,4.18-1.32,5.7-.88,1.52-2.26,2.78-4.14,3.76,1.61.59,2.78,1.42,3.49,2.49.72,1.07,1.13,2.72,1.24,4.96l.35,7.37c.04,1.22.23,2.07.58,2.57.35.49.84.88,1.46,1.17v.89h-6.61c-.34-.99-.58-2.48-.73-4.49s-.21-3.82-.21-5.43c0-.81-.07-1.63-.21-2.47-.14-.84-.46-1.6-.94-2.28-.48-.68-1.19-1.23-2.12-1.65s-2.19-.63-3.76-.63h-12.93v16.96ZM1057.94,1292.81h12.37c2.87,0,4.92-.59,6.17-1.76,1.25-1.17,1.87-2.86,1.87-5.07,0-2.01-.54-3.61-1.61-4.8s-2.92-1.79-5.54-1.79h-13.25v13.41Z"/>
    <path class="cls-1" d="M1107.75,1314.34h-5.35v-39.51h5.35v39.51Z"/>
    <path class="cls-1" d="M1136.63,1279.56h-13.31v-4.73h32.09v4.73h-13.44v34.78h-5.35v-34.78Z"/>
    <path class="cls-1" d="M1187.14,1314.34h-5.35v-15.91l-14.92-23.6h6.24l11.34,18.98,11.32-18.98h6.29l-14.92,23.6v15.91Z"/>
    <path class="cls-1" d="M1217.57,1308.51h5.73v5.4c0,2.72-.56,4.78-1.69,6.16s-2.47,2.17-4.03,2.37v-2.53c1.95-.25,2.93-2.11,2.93-5.56h-2.93v-5.83Z"/>
    <path class="cls-1" d="M1272.85,1302.83l-4.14,11.5h-5.48l14.86-39.51h6.05l14.3,39.51h-5.83l-3.9-11.5h-15.86ZM1286.77,1298.1l-5.83-17.39h-.11l-6.34,17.39h12.28Z"/>
    <path class="cls-1" d="M1341.72,1286.71c-.59-2.69-1.83-4.73-3.72-6.11s-4.34-2.08-7.35-2.08c-3.89,0-7.02,1.41-9.38,4.23-2.37,2.82-3.55,6.63-3.55,11.44,0,5.56,1.12,9.69,3.36,12.4s5.48,4.07,9.73,4.07c2.8,0,5.2-.93,7.22-2.78,2.02-1.85,3.37-4.55,4.07-8.08h5.19c-.7,5.07-2.63,8.94-5.78,11.6-3.15,2.66-6.99,3.99-11.5,3.99-5.39,0-9.71-1.85-12.94-5.56s-4.85-8.86-4.85-15.46,1.69-11.38,5.07-15.07c3.38-3.68,7.83-5.52,13.37-5.52,4.59,0,8.31,1.18,11.16,3.55,2.85,2.37,4.54,5.49,5.08,9.38h-5.16Z"/>
    <path class="cls-1" d="M1392.04,1286.71c-.59-2.69-1.83-4.73-3.72-6.11s-4.34-2.08-7.35-2.08c-3.89,0-7.02,1.41-9.38,4.23-2.37,2.82-3.55,6.63-3.55,11.44,0,5.56,1.12,9.69,3.36,12.4s5.48,4.07,9.73,4.07c2.8,0,5.2-.93,7.22-2.78,2.02-1.85,3.37-4.55,4.07-8.08h5.19c-.7,5.07-2.63,8.94-5.78,11.6-3.15,2.66-6.99,3.99-11.5,3.99-5.39,0-9.71-1.85-12.94-5.56s-4.85-8.86-4.85-15.46,1.69-11.38,5.07-15.07c3.38-3.68,7.83-5.52,13.37-5.52,4.59,0,8.31,1.18,11.16,3.55,2.85,2.37,4.54,5.49,5.08,9.38h-5.16Z"/>
    <path class="cls-1" d="M1444.06,1314.34h-29.16v-39.51h28.79v4.73h-23.44v12.1h21.61v4.73h-21.61v13.22h23.82v4.73Z"/>
    <path class="cls-1" d="M1484.47,1286.38c-.11-2.51-1.04-4.48-2.81-5.9-1.76-1.42-4.09-2.14-6.98-2.14s-5.13.6-6.69,1.79c-1.56,1.19-2.34,2.91-2.34,5.15,0,1.2.34,2.23,1.02,3.09.68.86,1.9,1.5,3.66,1.91l11.29,2.58c3.05.66,5.3,1.92,6.77,3.78,1.47,1.85,2.2,4.12,2.2,6.79,0,3.91-1.43,6.88-4.3,8.91s-6.59,3.05-11.18,3.05c-3.49,0-6.25-.45-8.27-1.34-2.02-.9-3.8-2.32-5.36-4.27-1.56-1.95-2.34-4.69-2.34-8.2h5c0,2.94.98,5.21,2.93,6.83s4.61,2.42,7.98,2.42,5.8-.58,7.62-1.73c1.82-1.16,2.73-2.8,2.73-4.93,0-1.94-.54-3.38-1.63-4.34-1.08-.96-3.2-1.81-6.36-2.54l-8.52-1.99c-2.83-.65-4.95-1.77-6.34-3.37-1.4-1.6-2.1-3.58-2.1-5.93,0-3.55,1.2-6.47,3.59-8.76,2.39-2.29,5.73-3.44,10.01-3.44,4.84,0,8.57,1.01,11.2,3.02,2.62,2.02,4.04,5.21,4.23,9.58h-5.03Z"/>
    <path class="cls-1" d="M1531.43,1286.38c-.11-2.51-1.04-4.48-2.81-5.9-1.76-1.42-4.09-2.14-6.98-2.14s-5.13.6-6.69,1.79c-1.56,1.19-2.34,2.91-2.34,5.15,0,1.2.34,2.23,1.02,3.09.68.86,1.9,1.5,3.66,1.91l11.29,2.58c3.05.66,5.3,1.92,6.77,3.78,1.47,1.85,2.2,4.12,2.2,6.79,0,3.91-1.43,6.88-4.3,8.91s-6.59,3.05-11.18,3.05c-3.49,0-6.25-.45-8.27-1.34-2.02-.9-3.8-2.32-5.36-4.27-1.56-1.95-2.34-4.69-2.34-8.2h5c0,2.94.98,5.21,2.93,6.83s4.61,2.42,7.98,2.42,5.8-.58,7.62-1.73c1.82-1.16,2.73-2.8,2.73-4.93,0-1.94-.54-3.38-1.63-4.34-1.08-.96-3.2-1.81-6.36-2.54l-8.52-1.99c-2.83-.65-4.95-1.77-6.34-3.37-1.4-1.6-2.1-3.58-2.1-5.93,0-3.55,1.2-6.47,3.59-8.76,2.39-2.29,5.73-3.44,10.01-3.44,4.84,0,8.57,1.01,11.2,3.02,2.62,2.02,4.04,5.21,4.23,9.58h-5.03Z"/>
    <path class="cls-1" d="M1560.47,1314.34h-5.35v-39.51h5.35v39.51Z"/>
    <path class="cls-1" d="M1579.83,1274.83h17.34c3.41,0,6.12.92,8.14,2.77,2.03,1.85,3.04,4.24,3.04,7.18,0,1.77-.44,3.39-1.33,4.85-.89,1.46-2.21,2.59-3.96,3.4,2.46.93,4.28,2.17,5.44,3.71s1.74,3.52,1.74,5.94c0,3.4-1.23,6.2-3.69,8.39-2.46,2.19-5.7,3.28-9.74,3.28h-16.98v-39.51ZM1585.09,1291.55h9.7c2.83,0,4.91-.51,6.22-1.55,1.32-1.03,1.98-2.64,1.98-4.82,0-1.88-.62-3.32-1.87-4.3-1.25-.99-3.34-1.48-6.28-1.48h-9.76v12.15ZM1585.09,1309.77h11.4c2.8,0,4.89-.65,6.29-1.95s2.1-3.05,2.1-5.26-.78-3.91-2.34-5.01c-1.56-1.1-3.86-1.65-6.91-1.65h-10.54v13.87Z"/>
    <path class="cls-1" d="M1632.59,1309.61h20.11v4.73h-25.37v-39.51h5.27v34.78Z"/>
    <path class="cls-1" d="M1697.62,1314.34h-29.16v-39.51h28.79v4.73h-23.44v12.1h21.61v4.73h-21.61v13.22h23.82v4.73Z"/>
    <g>
      <path class="cls-1" d="M674.04,1098.79v79.15c0,3.1.85,5.47,2.56,7.1,1.7,1.63,4.75,2.44,9.14,2.44h7.83v16.01c-7.42,1.06-12.53,1.59-15.33,1.59-8.56,0-14.8-2.04-18.74-6.13-3.94-4.09-5.9-10.71-5.9-19.87v-80.28h-16.46v-16.92h16.46v-33.95h20.44v33.95h19.53v16.92h-19.53Z"/>
      <path class="cls-1" d="M816.77,1165.33c-2.27,12.57-8.44,22.98-18.51,31.23-8.86,6.96-20.52,10.52-34.97,10.67-17.03-.15-30.55-5.73-40.54-16.75-9.99-11.01-14.99-25.83-14.99-44.46,0-21.35,5.15-37.96,15.44-49.85,10.29-11.88,24.6-17.83,42.92-17.83,16.43,0,29.26,6.13,38.49,18.4,9.23,12.26,13.85,29.79,13.85,52.57h-88.91c0,12.72,2.95,22.56,8.86,29.52,5.9,6.97,14.76,10.45,26.57,10.45,8.33,0,15.48-2.52,21.46-7.55,5.98-5.03,9.27-10.5,9.88-16.41h20.44ZM797.24,1132.97c-1.06-13.17-4.54-22.5-10.45-27.99-5.9-5.49-13.74-8.23-23.51-8.23s-17.92,3.48-24.02,10.45c-6.09,6.97-9.33,15.56-9.71,25.78h67.68Z"/>
      <path class="cls-1" d="M919.43,1122.75c-2.95-17.33-12.57-26-28.84-26-10.07,0-18.17,4.03-24.3,12.09-6.13,8.06-9.2,19.29-9.2,33.67,0,15.67,2.84,27.39,8.52,35.14,5.68,7.76,13.93,11.64,24.75,11.64,7.27,0,13.55-2.67,18.85-8.01s8.71-12.28,10.22-20.84h19.76c-2.04,15.06-7.36,26.59-15.96,34.58-8.59,7.99-19.7,11.98-33.33,11.98-15.97,0-29.07-5.47-39.29-16.41-10.22-10.94-15.33-25.79-15.33-44.57,0-20.59,5.11-37.02,15.33-49.28,10.22-12.26,24.56-18.4,43.04-18.4,13.47,0,24.2,4.03,32.19,12.09,7.99,8.06,12.44,18.83,13.34,32.31h-19.76Z"/>
      <path class="cls-1" d="M1060.91,1203.49h-20.44v-79.49c0-9.77-1.89-16.75-5.68-20.95-3.79-4.2-9.96-6.3-18.51-6.3-10.52,0-18.81,3.41-24.87,10.22-6.06,6.81-9.08,16.88-9.08,30.2v66.31h-20.44v-166.92h20.44v61.55h.45c9.3-13.17,21.17-19.76,35.6-19.76,13.3,0,23.71,3.48,31.24,10.45,7.52,6.97,11.28,17.6,11.28,31.91v82.78Z"/>
      <path class="cls-1" d="M1158.79,1116.51c-.3-7.27-2.9-12.49-7.78-15.67-4.88-3.18-11.91-4.77-21.06-4.77-6.66,0-12.36,1.48-17.09,4.43-4.73,2.95-7.1,7.19-7.1,12.72,0,4.39,1.4,7.63,4.2,9.71,2.8,2.08,8.86,4.3,18.17,6.64l20.21,5.11c12.26,3.1,21.03,7.06,26.29,11.87,5.26,4.81,7.89,11.53,7.89,20.16,0,11.96-4.37,21.67-13.12,29.13-8.74,7.46-20.42,11.18-35.03,11.18-17.03,0-29.92-3.54-38.66-10.62-8.74-7.08-13.19-17.73-13.34-31.96h19.76c.3,8.4,3.08,14.65,8.35,18.74,5.26,4.09,13.15,6.13,23.68,6.13,8.55,0,15.35-1.7,20.38-5.11,5.03-3.41,7.55-8.14,7.55-14.19,0-4.32-1.63-7.76-4.88-10.33-3.26-2.57-9.69-4.96-19.3-7.15l-23.73-5.79c-9.62-2.42-16.71-6.04-21.29-10.84-4.58-4.81-6.87-11.03-6.87-18.68,0-11.96,4.28-21.42,12.83-28.39,8.55-6.96,19.72-10.45,33.5-10.45,14.69,0,25.95,3.58,33.78,10.73,7.83,7.15,11.98,16.29,12.43,27.42h-19.76Z"/>
      <path class="cls-1" d="M1231.12,1098.79v79.15c0,3.1.85,5.47,2.55,7.1,1.7,1.63,4.75,2.44,9.14,2.44h7.83v16.01c-7.42,1.06-12.53,1.59-15.33,1.59-8.56,0-14.8-2.04-18.74-6.13-3.94-4.09-5.9-10.71-5.9-19.87v-80.28h-16.47v-16.92h16.47v-33.95h20.44v33.95h19.53v16.92h-19.53Z"/>
      <path class="cls-1" d="M1270.87,1059.73v-23.17h20.44v23.17h-20.44ZM1291.31,1203.49h-20.44v-121.61h20.44v121.61Z"/>
      <path class="cls-1" d="M1346.72,1098.79v79.15c0,3.1.85,5.47,2.55,7.1,1.7,1.63,4.75,2.44,9.14,2.44h7.83v16.01c-7.42,1.06-12.53,1.59-15.33,1.59-8.56,0-14.8-2.04-18.74-6.13-3.94-4.09-5.9-10.71-5.9-19.87v-80.28h-16.47v-16.92h16.47v-33.95h20.44v33.95h19.53v16.92h-19.53Z"/>
      <path class="cls-1" d="M1463.22,1122.75c-2.95-17.33-12.57-26-28.84-26-10.07,0-18.17,4.03-24.3,12.09-6.13,8.06-9.2,19.29-9.2,33.67,0,15.67,2.84,27.39,8.52,35.14,5.68,7.76,13.93,11.64,24.75,11.64,7.27,0,13.55-2.67,18.85-8.01,5.3-5.34,8.7-12.28,10.22-20.84h19.76c-2.04,15.06-7.36,26.59-15.95,34.58-8.59,7.99-19.7,11.98-33.33,11.98-15.97,0-29.07-5.47-39.29-16.41-10.22-10.94-15.33-25.79-15.33-44.57,0-20.59,5.11-37.02,15.33-49.28s24.56-18.4,43.04-18.4c13.47,0,24.2,4.03,32.19,12.09,7.99,8.06,12.43,18.83,13.34,32.31h-19.76Z"/>
      <path class="cls-1" d="M1604.71,1203.49h-20.44v-79.49c0-9.77-1.89-16.75-5.68-20.95-3.79-4.2-9.96-6.3-18.51-6.3-10.52,0-18.81,3.41-24.87,10.22-6.06,6.81-9.08,16.88-9.08,30.2v66.31h-20.44v-166.92h20.44v61.55h.45c9.3-13.17,21.17-19.76,35.6-19.76,13.3,0,23.71,3.48,31.24,10.45,7.52,6.97,11.28,17.6,11.28,31.91v82.78Z"/>
    </g>
  </g>
</svg>