<svg version="1.2" xmlns="http://www.w3.org/2000/svg" viewBox="0 0 63 67" width="63" height="67"><defs><clipPath clipPathUnits="userSpaceOnUse" id="cp1"><path d="m-452-3925h1440v5730h-1440z"/></clipPath></defs><style>tspan{white-space:pre}.a{fill:#ebf6ff}.b{fill:#0063d3}</style><g clip-path="url(#cp1)"><path class="a" d="m19 38c-10.5 0-19-8.5-19-19 0-10.5 8.5-19 19-19 10.5 0 19 8.5 19 19 0 10.5-8.5 19-19 19z"/><path fill-rule="evenodd" class="b" d="m50.7 28l5.4-5.4c-1.4-1.1-3.1-1.7-4.9-1.7-4.7 0-8.5 3.9-8.5 8.5 0 4.7 3.8 8.5 8.5 8.5q1.3 0 2.4-0.4 0.1 0 0.2 0c3.3-1.1 5.7-4.1 5.8-7.8 0.1-0.4 0.4-0.8 0.9-0.7 0.4 0 0.7 0.3 0.7 0.8-0.1 2.6-1.2 5-3 6.9-1 0.9-2.2 1.7-3.5 2.1v24.6c0 1.4-1.1 2.6-2.6 2.6h-32c-1.5 0-2.6-1.2-2.6-2.6v-44.6c0-1.4 1.1-2.6 2.6-2.6h5.2c0.5 0 0.8 0.4 0.8 0.8 0 0.5-0.3 0.8-0.8 0.8h-5.2c-0.6 0-1.1 0.5-1.1 1v44.6c0 0.6 0.5 1 1.1 1h32c0.6 0 1.1-0.4 1.1-1v-24.1q-1 0.2-2 0.2c-5.6 0-10.1-4.5-10.1-10.1 0-5.5 4.5-10 10.1-10q1 0 2 0.2v-0.8c0-0.5-0.5-1-1.1-1h-8.1v1.3c0 1-0.9 1.8-1.9 1.8h-12c-1.1 0-1.9-0.8-1.9-1.8v-3.8c0-1.8 1.5-3.3 3.3-3.3h9.2c1.8 0 3.3 1.5 3.3 3.3v0.9h8.1c1.5 0 2.6 1.2 2.6 2.6v1.2q1.4 0.5 2.6 1.4l1-1c0.5-0.5 1.2-0.8 1.9-0.8 0.7 0 1.3 0.3 1.8 0.8 0.5 0.5 0.8 1.1 0.8 1.8 0 0.7-0.3 1.4-0.8 1.9l-9.5 9.4c-0.5 0.5-1.1 0.8-1.8 0.8-0.7 0-1.4-0.3-1.9-0.8l-4.4-4.4c-0.5-0.5-0.8-1.1-0.8-1.8 0-0.7 0.3-1.4 0.8-1.9 0.5-0.5 1.1-0.7 1.8-0.7 0.7 0 1.4 0.2 1.9 0.7zm-8.3-12.7c0-0.9-0.8-1.7-1.7-1.7h-9.1c-1 0-1.8 0.8-1.8 1.7v3.8c0 0.1 0.1 0.3 0.3 0.3h12c0.2 0 0.3-0.2 0.3-0.3zm8.8 14.4c-0.3 0.3-0.8 0.3-1.1 0l-3.1-3.2q-0.3-0.3-0.8-0.3-0.4 0-0.7 0.3-0.3 0.3-0.3 0.7 0 0.4 0.3 0.7l4.5 4.5q0.3 0.3 0.7 0.3 0.4 0 0.7-0.3l9.5-9.5c0.4-0.4 0.4-1 0-1.4q-0.3-0.3-0.7-0.3-0.5 0-0.8 0.3z"/><path class="b" d="m39 31.9h-9.6c-0.5 0-0.8 0.3-0.8 0.8 0 0.4 0.3 0.8 0.8 0.8h9.6c0.5 0 0.8-0.4 0.8-0.8 0-0.5-0.3-0.8-0.8-0.8z"/><path class="b" d="m27.8 23.7h-5.3c-0.4 0-0.8 0.4-0.8 0.8 0 0.4 0.4 0.8 0.8 0.8h5.3c0.5 0 0.8-0.4 0.8-0.8 0-0.4-0.3-0.8-0.8-0.8z"/><path class="b" d="m29.4 37.1h9.6c0.5 0 0.8-0.3 0.8-0.7 0-0.5-0.3-0.8-0.8-0.8h-9.6c-0.5 0-0.8 0.3-0.8 0.8 0 0.4 0.3 0.7 0.8 0.7z"/><path class="b" d="m42.3 41.5h-12.9c-0.5 0-0.8 0.3-0.8 0.8 0 0.4 0.3 0.8 0.8 0.8h12.9c0.5 0 0.8-0.4 0.8-0.8 0-0.5-0.3-0.8-0.8-0.8z"/><path class="b" d="m29.4 46.8h6.5c0.4 0 0.7-0.4 0.7-0.8 0-0.5-0.3-0.8-0.7-0.8h-6.5c-0.5 0-0.8 0.3-0.8 0.8 0 0.4 0.3 0.8 0.8 0.8z"/><path class="b" d="m29.4 52.7h9.6c0.5 0 0.8-0.4 0.8-0.8 0-0.4-0.3-0.8-0.8-0.8h-9.6c-0.5 0-0.8 0.4-0.8 0.8 0 0.4 0.3 0.8 0.8 0.8z"/><path class="b" d="m29.4 56.4h12.9c0.5 0 0.8-0.4 0.8-0.8 0-0.5-0.3-0.8-0.8-0.8h-12.9c-0.5 0-0.8 0.3-0.8 0.8 0 0.4 0.3 0.8 0.8 0.8z"/><path fill-rule="evenodd" class="b" d="m27.4 34.4c0 1.8-1.4 3.2-3.2 3.2-1.8 0-3.2-1.4-3.2-3.2 0-1.8 1.4-3.2 3.2-3.2 1.8 0 3.2 1.4 3.2 3.2zm-1.6 0c0-0.9-0.7-1.6-1.6-1.6-0.9 0-1.6 0.7-1.6 1.6 0 0.9 0.7 1.6 1.6 1.6 0.9 0 1.6-0.7 1.6-1.6z"/><path fill-rule="evenodd" class="b" d="m27.4 44.1c0 1.8-1.4 3.2-3.2 3.2-1.8 0-3.2-1.4-3.2-3.2 0-1.7 1.4-3.2 3.2-3.2 1.8 0 3.2 1.5 3.2 3.2zm-1.6 0c0-0.9-0.7-1.6-1.6-1.6-0.9 0-1.6 0.7-1.6 1.6 0 0.9 0.7 1.6 1.6 1.6 0.9 0 1.6-0.7 1.6-1.6z"/><path fill-rule="evenodd" class="b" d="m27.4 53.7c0 1.8-1.4 3.2-3.2 3.2-1.8 0-3.2-1.4-3.2-3.2 0-1.7 1.4-3.2 3.2-3.2 1.8 0 3.2 1.5 3.2 3.2zm-1.6 0c0-0.8-0.7-1.6-1.6-1.6-0.9 0-1.6 0.8-1.6 1.6 0 0.9 0.7 1.7 1.6 1.7 0.9 0 1.6-0.8 1.6-1.7z"/></g></svg>